<svg xmlns="http://www.w3.org/2000/svg" viewBox="0 0 77.467 47.773">
  <defs>
    <style>
      .cls-1, .cls-2 {
        fill: #1de9b6;
      }

      .cls-2 {
        fill-rule: evenodd;
      }
    </style>
  </defs>
  <g id="extendlimiticon" transform="translate(0 0)">
    <g id="Group_2973" data-name="Group 2973">
      <g id="Group_2970" data-name="Group 2970" transform="translate(8.226 8.226)">
        <path id="Path_4306" data-name="Path 4306" class="cls-1" d="M73.116,18.7H79.67V50.021H18.7v-6.6H22v3.3H76.415V22h-3.3Z" transform="translate(-18.7 -18.7)"/>
      </g>
      <g id="Group_2971" data-name="Group 2971" transform="translate(16.496 16.496)">
        <path id="Path_4307" data-name="Path 4307" class="cls-1" d="M91.872,37.5h6.6V68.777H37.5V62.223h3.3v3.255H95.171V40.8h-3.3Z" transform="translate(-37.5 -37.5)"/>
      </g>
      <g id="Group_2972" data-name="Group 2972">
        <path id="Path_4308" data-name="Path 4308" class="cls-2" d="M1.628,0h59.3V31.277H0V0Zm28.2,20.455a2.619,2.619,0,0,1-.924-.792,3.075,3.075,0,0,1-.572-1.276l-2.419.264a4.941,4.941,0,0,0,1.276,2.859A4.334,4.334,0,0,0,29.825,22.7v1.716h1.364v-1.76a4.666,4.666,0,0,0,2.859-1.408,4.283,4.283,0,0,0,1.012-2.859,3.682,3.682,0,0,0-.792-2.463,5.717,5.717,0,0,0-3.035-1.584V10.69a1.954,1.954,0,0,1,1.144,1.5l2.375-.308a4.166,4.166,0,0,0-1.1-2.244,3.942,3.942,0,0,0-2.375-1.012V6.95H29.913V8.622a4.09,4.09,0,0,0-2.6,1.188,3.587,3.587,0,0,0-.968,2.6,4.355,4.355,0,0,0,.836,2.6,5.146,5.146,0,0,0,2.683,1.584v3.871Zm0-9.854a2.125,2.125,0,0,0-.88.616,1.624,1.624,0,0,0-.308,1.012,1.461,1.461,0,0,0,.308.924,2.237,2.237,0,0,0,.924.7V10.6Zm1.364,9.942a1.9,1.9,0,0,0,1.144-.66,1.768,1.768,0,0,0,.44-1.232,1.824,1.824,0,0,0-.352-1.1,2.532,2.532,0,0,0-1.232-.7v3.7Z"/>
      </g>
    </g>
  </g>
</svg>
