<svg id="reportprepaidicon" xmlns="http://www.w3.org/2000/svg" xmlns:xlink="http://www.w3.org/1999/xlink" viewBox="0 0 50 50">
  <defs>
    <style>
      .cls-1 {
        fill: url(#linear-gradient);
      }
    </style>
    <linearGradient id="linear-gradient" x1="0.5" x2="0.5" y2="1" gradientUnits="objectBoundingBox">
      <stop offset="0" stop-color="#a389d4"/>
      <stop offset="1" stop-color="#899ed4"/>
    </linearGradient>
  </defs>
  <path id="Path_4236" data-name="Path 4236" class="cls-1" d="M63.36,294.36a3.334,3.334,0,0,1-3.33-3.33.82.82,0,0,0-.244-.586.837.837,0,0,0-.586-.244H39.19a.82.82,0,0,0-.586.244.837.837,0,0,0-.244.586,3.334,3.334,0,0,1-3.33,3.33.82.82,0,0,0-.586.244.837.837,0,0,0-.244.586v8.33a.82.82,0,0,0,.244.586.837.837,0,0,0,.586.244,3.334,3.334,0,0,1,3.33,3.33.82.82,0,0,0,.244.586.837.837,0,0,0,.586.244h20a.82.82,0,0,0,.586-.244.837.837,0,0,0,.244-.586,3.334,3.334,0,0,1,3.33-3.33.82.82,0,0,0,.586-.244.837.837,0,0,0,.244-.586v-8.33a.82.82,0,0,0-.244-.586A.781.781,0,0,0,63.36,294.36Zm-.83,8.4a5.023,5.023,0,0,0-4.1,4.1H39.962a5.023,5.023,0,0,0-4.1-4.1v-6.807a5.023,5.023,0,0,0,4.1-4.1H58.438a5.023,5.023,0,0,0,4.1,4.1v6.807Z" transform="translate(-30.86 -261.86)"/>
  <path id="Path_4237" data-name="Path 4237" class="cls-1" d="M158.6,320.38a.83.83,0,0,0,1.66,0,3.016,3.016,0,0,0-2.5-2.812v-.937a.83.83,0,0,0-1.66,0v.938a2.832,2.832,0,0,0,0,5.625v2.422a1.26,1.26,0,0,1-.83-1.074.83.83,0,0,0-1.66,0,3.016,3.016,0,0,0,2.5,2.813v.938a.83.83,0,0,0,1.66,0v-.937a2.832,2.832,0,0,0,0-5.625v-2.422A1.26,1.26,0,0,1,158.6,320.38Zm-3.33,0a1.26,1.26,0,0,1,.83-1.074v2.139A1.235,1.235,0,0,1,155.27,320.38Zm3.33,4.16a1.26,1.26,0,0,1-.83,1.074v-2.139A1.235,1.235,0,0,1,158.6,324.54Z" transform="translate(-138.6 -284.96)"/>
  <path id="Path_4238" data-name="Path 4238" class="cls-1" d="M47.5,0H15.83a2.5,2.5,0,0,0-2.5,2.5V25H2.5A2.5,2.5,0,0,0,0,27.5v20A2.5,2.5,0,0,0,2.5,50H34.17a2.5,2.5,0,0,0,2.5-2.5V30H47.5A2.5,2.5,0,0,0,50,27.5V2.5A2.5,2.5,0,0,0,47.5,0ZM15.83,1.67H47.5a.829.829,0,0,1,.83.83V5.83H15V2.5A.829.829,0,0,1,15.83,1.67ZM35,47.5a.829.829,0,0,1-.83.83H2.5a.829.829,0,0,1-.83-.83v-20a.829.829,0,0,1,.83-.83H34.17a.829.829,0,0,1,.83.83ZM47.5,28.33H36.67V27.5a2.5,2.5,0,0,0-2.5-2.5H15V7.5H48.33v20A.829.829,0,0,1,47.5,28.33Z"/>
  <path id="Path_4239" data-name="Path 4239" class="cls-1" d="M453.13,35.86h.83a.83.83,0,0,0,0-1.66h-.83a.83.83,0,0,0,0,1.66Z" transform="translate(-408.13 -30.86)"/>
  <path id="Path_4240" data-name="Path 4240" class="cls-1" d="M410.43,35.86h.83a.83.83,0,0,0,0-1.66h-.83a.83.83,0,0,0,0,1.66Z" transform="translate(-369.6 -30.86)"/>
  <path id="Path_4241" data-name="Path 4241" class="cls-1" d="M188.2,93.9h-15a2.5,2.5,0,0,0-2.5,2.5v9.17a2.5,2.5,0,0,0,2.5,2.5h15a2.5,2.5,0,0,0,2.5-2.5V96.4A2.5,2.5,0,0,0,188.2,93.9Zm.83,11.66a.829.829,0,0,1-.83.83h-15a.829.829,0,0,1-.83-.83V96.39a.829.829,0,0,1,.83-.83h15a.829.829,0,0,1,.83.83Z" transform="translate(-154.03 -84.73)"/>
  <path id="Path_4242" data-name="Path 4242" class="cls-1" d="M400,93.9h-6.67a.83.83,0,0,0,0,1.66H400a.83.83,0,0,0,0-1.66Z" transform="translate(-354.17 -84.73)"/>
  <path id="Path_4243" data-name="Path 4243" class="cls-1" d="M400,128h-6.67a.83.83,0,0,0,0,1.66H400a.83.83,0,0,0,0-1.66Z" transform="translate(-354.17 -115.5)"/>
  <path id="Path_4244" data-name="Path 4244" class="cls-1" d="M400,162.1h-6.67a.83.83,0,0,0,0,1.66H400a.83.83,0,0,0,0-1.66Z" transform="translate(-354.17 -146.27)"/>
  <path id="Path_4245" data-name="Path 4245" class="cls-1" d="M400,196.3h-6.67a.83.83,0,0,0,0,1.66H400a.83.83,0,0,0,0-1.66Z" transform="translate(-354.17 -177.13)"/>
  <path id="Path_4246" data-name="Path 4246" class="cls-1" d="M400,230.4h-6.67a.83.83,0,0,0,0,1.66H400a.83.83,0,0,0,0-1.66Z" transform="translate(-354.17 -207.9)"/>
  <path id="Path_4247" data-name="Path 4247" class="cls-1" d="M35.03,292.69a.82.82,0,0,0,.586-.244.837.837,0,0,0,.244-.586v-.83a.83.83,0,0,0-1.66,0v.83a.82.82,0,0,0,.244.586A.8.8,0,0,0,35.03,292.69Z" transform="translate(-30.86 -261.86)"/>
  <path id="Path_4248" data-name="Path 4248" class="cls-1" d="M35.03,452.3a.82.82,0,0,0-.586.244.837.837,0,0,0-.244.586v.83a.83.83,0,0,0,1.66,0v-.83a.82.82,0,0,0-.244-.586A.837.837,0,0,0,35.03,452.3Z" transform="translate(-30.86 -408.13)"/>
  <path id="Path_4249" data-name="Path 4249" class="cls-1" d="M325.13,290.1a.82.82,0,0,0-.586.244.837.837,0,0,0-.244.586v.83a.83.83,0,0,0,1.66,0v-.83a.834.834,0,0,0-.83-.83Z" transform="translate(-292.63 -261.77)"/>
  <path id="Path_4250" data-name="Path 4250" class="cls-1" d="M325.13,452.3a.82.82,0,0,0-.586.244.837.837,0,0,0-.244.586v.83a.83.83,0,0,0,1.66,0v-.83a.834.834,0,0,0-.83-.83Z" transform="translate(-292.63 -408.13)"/>
  <path id="Path_4251" data-name="Path 4251" class="cls-1" d="M2.5,73.853a2.5,2.5,0,0,0,2.5-2.5v-4.17h.83v1.67a.833.833,0,0,0,1.426.586l4.17-4.16a.837.837,0,0,0,.244-.586.82.82,0,0,0-.244-.586l-4.17-4.18a.844.844,0,0,0-.908-.186.83.83,0,0,0-.518.771v1.67H5a5.01,5.01,0,0,0-5,5v4.17A2.5,2.5,0,0,0,2.5,73.853Zm-.83-6.67A3.334,3.334,0,0,1,5,63.853H6.67a.82.82,0,0,0,.586-.244.837.837,0,0,0,.244-.586v-.488l2.158,2.158L7.5,66.841v-.488a.82.82,0,0,0-.244-.586.837.837,0,0,0-.586-.244H5a1.669,1.669,0,0,0-1.67,1.67v4.17a.83.83,0,1,1-1.66,0v-4.18Z" transform="translate(0 -53.853)"/>
  <path id="Path_4252" data-name="Path 4252" class="cls-1" d="M401.67,341.3a2.5,2.5,0,0,0-2.5,2.5v4.17h-.83V346.3a.833.833,0,0,0-1.426-.586l-4.17,4.17a.825.825,0,0,0,0,1.172l4.17,4.17a.844.844,0,0,0,.908.186.83.83,0,0,0,.518-.771v-1.67h.83a5,5,0,0,0,5-5V343.8A2.5,2.5,0,0,0,401.67,341.3Zm.83,6.67a3.334,3.334,0,0,1-3.33,3.33H397.5a.82.82,0,0,0-.586.244.837.837,0,0,0-.244.586v.488l-2.158-2.158,2.158-2.158v.488a.82.82,0,0,0,.244.586.837.837,0,0,0,.586.244h1.67a1.669,1.669,0,0,0,1.67-1.67v-4.17a.83.83,0,1,1,1.66,0Z" transform="translate(-354.17 -307.97)"/>
</svg>
