<svg xmlns="http://www.w3.org/2000/svg" xmlns:xlink="http://www.w3.org/1999/xlink" viewBox="0 0 104.59 104.59"><defs><style>.a{fill:url(#a);}.b{fill:#fff;}.c{filter:url(#b);}</style><linearGradient id="a" x1="1" x2="0" y2="1" gradientUnits="objectBoundingBox"><stop offset="0" stop-color="#ea212d"/><stop offset="1" stop-color="#95242c"/></linearGradient><filter id="b" x="0" y="0" width="104.59" height="104.59" filterUnits="userSpaceOnUse"><feOffset dy="10" input="SourceAlpha"/><feGaussianBlur stdDeviation="10" result="c"/><feFlood flood-opacity="0.2"/><feComposite operator="in" in2="c"/><feComposite in="SourceGraphic"/></filter></defs><g transform="translate(30 20)"><g class="c" transform="matrix(1, 0, 0, 1, -30, -20)"><rect class="a" width="44.59" height="44.59" rx="22.295" transform="translate(30 20)"/></g><g transform="translate(13.579 12.314)"><path class="b" d="M3.88,4.559H3.274V.485a.485.485,0,1,0-.97,0V4.559H1.7a1.7,1.7,0,0,0,0,3.4H2.3V19.887a.485.485,0,0,0,.97,0V7.955H3.88a1.7,1.7,0,0,0,0-3.4Zm0,2.425H1.7a.728.728,0,0,1,0-1.455H3.88a.728.728,0,0,1,0,1.455Z"/><path class="b" d="M50.88,8h-.606V.485a.485.485,0,1,0-.97,0V8H48.7a1.7,1.7,0,0,0,0,3.4H49.3v8.488a.485.485,0,1,0,.97,0V11.4h.606a1.7,1.7,0,0,0,0-3.4Zm0,2.425H48.7a.728.728,0,0,1,0-1.455H50.88a.728.728,0,0,1,0,1.455Z" transform="translate(-35.601)"/><path class="b" d="M27.38,12.466h-.606V.485a.485.485,0,1,0-.97,0V12.466H25.2a1.7,1.7,0,0,0,0,3.4H25.8v4.026a.485.485,0,0,0,.97,0V15.861h.606a1.7,1.7,0,0,0,0-3.4Zm0,2.425H25.2a.728.728,0,0,1,0-1.455H27.38a.728.728,0,0,1,0,1.455Z" transform="translate(-17.801)"/></g></g></svg>