<svg xmlns="http://www.w3.org/2000/svg" xmlns:xlink="http://www.w3.org/1999/xlink" viewBox="0 0 104.59 104.59"><defs><style>.a{fill:url(#a);}.b{fill:#fff;}.c{filter:url(#b);}</style><linearGradient id="a" x1="1" x2="0" y2="1" gradientUnits="objectBoundingBox"><stop offset="0" stop-color="#ea212d"/><stop offset="1" stop-color="#efb74e"/></linearGradient><filter id="b" x="0" y="0" width="104.59" height="104.59" filterUnits="userSpaceOnUse"><feOffset dy="10" input="SourceAlpha"/><feGaussianBlur stdDeviation="10" result="c"/><feFlood flood-opacity="0.2"/><feComposite operator="in" in2="c"/><feComposite in="SourceGraphic"/></filter></defs><g transform="translate(10.89 12.364)"><g transform="translate(19.11 7.636)"><g class="c" transform="matrix(1, 0, 0, 1, -30, -20)"><rect class="a" width="44.59" height="44.59" rx="22.295" transform="translate(30 20)"/></g></g><g transform="translate(30.042 21.405)"><path class="b" d="M21.57,0h-21A.569.569,0,0,0,0,.568V17.029a.569.569,0,0,0,.568.568h21a.569.569,0,0,0,.568-.568V.568A.569.569,0,0,0,21.57,0ZM21,16.461H1.135V1.135H21Z"/><path class="b" d="M29.568,38.745a.569.569,0,0,0,.568-.568v-4.91a.568.568,0,0,0-1.135,0v4.91A.569.569,0,0,0,29.568,38.745Z" transform="translate(-20.77 -23.419)"/><path class="b" d="M13.568,38.745a.569.569,0,0,0,.568-.568v-4.91a.568.568,0,0,0-1.135,0v4.91A.569.569,0,0,0,13.568,38.745Z" transform="translate(-9.31 -23.419)"/><path class="b" d="M21.568,34.806a.569.569,0,0,0,.568-.568V27.768a.568.568,0,0,0-1.135,0v6.471A.569.569,0,0,0,21.568,34.806Z" transform="translate(-15.04 -19.48)"/><path class="b" d="M45.568,34.806a.569.569,0,0,0,.568-.568V27.768a.568.568,0,0,0-1.135,0v6.471A.569.569,0,0,0,45.568,34.806Z" transform="translate(-32.229 -19.48)"/><path class="b" d="M37.568,30.8a.569.569,0,0,0,.568-.568v-8.06a.568.568,0,1,0-1.135,0v8.06A.569.569,0,0,0,37.568,30.8Z" transform="translate(-26.499 -15.47)"/><path class="b" d="M61.568,22.846a.569.569,0,0,0,.568-.568V11.068a.568.568,0,1,0-1.135,0v11.21A.569.569,0,0,0,61.568,22.846Z" transform="translate(-43.688 -7.52)"/><path class="b" d="M53.568,26.785a.569.569,0,0,0,.568-.568v-9.65a.568.568,0,0,0-1.135,0v9.65A.569.569,0,0,0,53.568,26.785Z" transform="translate(-37.958 -11.459)"/></g></g></svg>