<svg xmlns="http://www.w3.org/2000/svg" xmlns:xlink="http://www.w3.org/1999/xlink" viewBox="0 0 31.51 25.51">
  <defs>
    <style>
      .cls-1 {
        fill: rgba(168,166,166,0.57);
        opacity: 0.312;
      }

      .cls-2 {
        filter: url(#union);
      }
    </style>
    <filter id="union" x="0" y="0" width="31.51" height="25.51" filterUnits="userSpaceOnUse">
      <feOffset dy="3" input="SourceAlpha"/>
      <feGaussianBlur stdDeviation="3" result="blur"/>
      <feFlood flood-opacity="0.161"/>
      <feComposite operator="in" in2="blur"/>
      <feComposite in="SourceGraphic"/>
    </filter>
  </defs>
  <g class="cls-2" transform="matrix(1, 0, 0, 1, 0, 0)">
    <path id="union-2" data-name="union" class="cls-1" d="M1597.541-4.4l-5.929-5.93a.742.742,0,0,1-.081-.07.747.747,0,0,1-.219-.536.747.747,0,0,1,.219-.535.751.751,0,0,1,.078-.068l5.932-5.932a.751.751,0,0,1,1.061,0,.751.751,0,0,1,0,1.061l-5.476,5.475,5.476,5.475a.751.751,0,0,1,0,1.061.749.749,0,0,1-.531.219A.749.749,0,0,1,1597.541-4.4Z" transform="translate(26.69 1604.82) rotate(-90)"/>
  </g>
</svg>
