<svg xmlns="http://www.w3.org/2000/svg" viewBox="0 0 24 24">
  <path id="editicon" d="M23.805,5.856,18.146.2a.65.65,0,0,0-.461-.2h0a.6.6,0,0,0-.461.2L1.614,15.792a.728.728,0,0,0-.181.329L.019,23.21A.613.613,0,0,0,.2,23.8.65.65,0,0,0,.66,24a.362.362,0,0,0,.132-.016l7.09-1.415a.592.592,0,0,0,.329-.181L23.805,6.794A.655.655,0,0,0,23.805,5.856ZM7.75,20.99,3.012,16.252,15.564,3.7l4.672,4.8ZM2.486,17.585l3.932,3.931L1.5,22.5ZM21.173,7.567,16.5,2.764l1.184-1.184,4.738,4.737Z" transform="translate(-0.003)"/>
</svg>
