<svg id="extendexpiryicon" xmlns="http://www.w3.org/2000/svg" viewBox="0 0 24.258 24">
  <path id="Path_4174" data-name="Path 4174" d="M21.377,1.562H18.936V.606a.606.606,0,1,0-1.213,0v.955H6.459V.606a.606.606,0,1,0-1.213,0v.955H2.881A2.879,2.879,0,0,0,0,4.442V21.119A2.879,2.879,0,0,0,2.881,24h18.5a2.879,2.879,0,0,0,2.881-2.881V4.442A2.889,2.889,0,0,0,21.377,1.562ZM2.881,2.774H5.246v1.5a.606.606,0,1,0,1.213,0v-1.5h11.25v1.5a.606.606,0,0,0,1.213,0v-1.5h2.456a1.663,1.663,0,0,1,1.668,1.668V6.11H1.213V4.442A1.673,1.673,0,0,1,2.881,2.774Zm18.5,20.013H2.881a1.663,1.663,0,0,1-1.668-1.668V7.323H23.045v13.8A1.663,1.663,0,0,1,21.377,22.787Z"/>
  <path id="Path_4175" data-name="Path 4175" d="M51.278,59.748a.6.6,0,0,0-.849.091l-7.338,9.188-3.7-3.214a.6.6,0,0,0-.788.91l4.169,3.639a.639.639,0,0,0,.394.152h.061a.6.6,0,0,0,.425-.227L51.369,60.6A.6.6,0,0,0,51.278,59.748Z" transform="translate(-32.569 -50.575)"/>
</svg>
