<svg xmlns="http://www.w3.org/2000/svg" xmlns:xlink="http://www.w3.org/1999/xlink" viewBox="0 0 44.59 44.59">
  <defs>
    <style>
      .cls-1 {
        fill: url(#linear-gradient);
      }

      .cls-2 {
        fill: #fff;
      }
    </style>
    <linearGradient id="linear-gradient" x1="1" x2="0" y2="1" gradientUnits="objectBoundingBox">
      <stop offset="0" stop-color="#ea212d"/>
      <stop offset="1" stop-color="#95242c"/>
    </linearGradient>
  </defs>
  <g id="Icon" transform="translate(0 0)">
    <g id="Group_3798" data-name="Group 3798">
      <rect id="Background" class="cls-1" width="44.59" height="44.59" rx="22.295"/>
      <g id="Group_3635" data-name="Group 3635" transform="translate(13.579 12.314)">
        <path id="Path_679" data-name="Path 679" class="cls-2" d="M3.88,4.559H3.274V.485a.485.485,0,1,0-.97,0V4.559H1.7a1.7,1.7,0,0,0,0,3.4H2.3V19.887a.485.485,0,0,0,.97,0V7.955H3.88a1.7,1.7,0,0,0,0-3.4Zm0,2.425H1.7a.728.728,0,0,1,0-1.455H3.88a.728.728,0,0,1,0,1.455Z"/>
        <path id="Path_680" data-name="Path 680" class="cls-2" d="M50.88,8h-.606V.485a.485.485,0,1,0-.97,0V8H48.7a1.7,1.7,0,0,0,0,3.4H49.3v8.488a.485.485,0,1,0,.97,0V11.4h.606a1.7,1.7,0,0,0,0-3.4Zm0,2.425H48.7a.728.728,0,0,1,0-1.455H50.88a.728.728,0,0,1,0,1.455Z" transform="translate(-35.601)"/>
        <path id="Path_681" data-name="Path 681" class="cls-2" d="M27.38,12.466h-.606V.485a.485.485,0,1,0-.97,0V12.466H25.2a1.7,1.7,0,0,0,0,3.4H25.8v4.026a.485.485,0,0,0,.97,0V15.861h.606a1.7,1.7,0,0,0,0-3.4Zm0,2.425H25.2a.728.728,0,0,1,0-1.455H27.38a.728.728,0,0,1,0,1.455Z" transform="translate(-17.801)"/>
      </g>
    </g>
  </g>
</svg>
