<svg xmlns="http://www.w3.org/2000/svg" viewBox="0 0 16.257 10.705">
  <defs>
    <style>
      .cls-1 {
        fill: #fff;
      }
    </style>
  </defs>
  <path id="Menu_Icon" data-name="Menu Icon" class="cls-1" d="M-3.159-639.295A.843.843,0,0,1-4-640.14a.843.843,0,0,1,.841-.845H11.416a.843.843,0,0,1,.841.845.843.843,0,0,1-.841.845ZM-.916-643.8a.843.843,0,0,1-.841-.845.843.843,0,0,1,.841-.845H11.416a.843.843,0,0,1,.841.845.843.843,0,0,1-.841.845Zm-2.243-4.508A.843.843,0,0,1-4-649.155.843.843,0,0,1-3.159-650H11.416a.843.843,0,0,1,.841.845.843.843,0,0,1-.841.845Z" transform="translate(4 650)"/>
</svg>
