<svg xmlns="http://www.w3.org/2000/svg" xmlns:xlink="http://www.w3.org/1999/xlink" viewBox="0 0 61.259 50">
  <defs>
    <style>
      .cls-1 {
        fill: url(#linear-gradient);
      }
    </style>
    <linearGradient id="linear-gradient" x1="0.5" x2="0.5" y2="1" gradientUnits="objectBoundingBox">
      <stop offset="0" stop-color="#a389d4"/>
      <stop offset="1" stop-color="#899ed4"/>
    </linearGradient>
  </defs>
  <g id="reportcardlist" transform="translate(1 1)">
    <path id="Path_4253" data-name="Path 4253" class="cls-1" d="M50.028,39.816H3.078A4.091,4.091,0,0,1-1,35.738V3.078A4.1,4.1,0,0,1,3.078-1H50.017a4.091,4.091,0,0,1,4.078,4.078v32.66A4.073,4.073,0,0,1,50.028,39.816ZM3.078,1.045A2.052,2.052,0,0,0,1.033,3.09V35.75a2.052,2.052,0,0,0,2.045,2.045H50.017a2.052,2.052,0,0,0,2.045-2.045V3.078a2.052,2.052,0,0,0-2.045-2.045H3.078Z"/>
    <path id="Path_4254" data-name="Path 4254" class="cls-1" d="M53.09,51.9H.017A.96.96,0,0,1-1,50.884V42.717A.96.96,0,0,1,.017,41.7H53.078a.96.96,0,0,1,1.017,1.017v8.168A.945.945,0,0,1,53.09,51.9ZM1.045,49.856H52.073V43.733H1.045Z" transform="translate(0 -37.594)"/>
    <path id="Path_4255" data-name="Path 4255" class="cls-1" d="M280.94,206.517H264.617A.96.96,0,0,1,263.6,205.5v-9.184a.96.96,0,0,1,1.017-1.017H280.94a.96.96,0,0,1,1.016,1.017V205.5A.96.96,0,0,1,280.94,206.517Zm-15.307-2.033h14.291v-7.139H265.633Z" transform="translate(-232.957 -172.825)"/>
    <path id="Path_4256" data-name="Path 4256" class="cls-1" d="M42.372,163.233H34.217a1.017,1.017,0,1,1,0-2.033h8.168a1.017,1.017,0,1,1-.012,2.033Z" transform="translate(-30.11 -142.803)"/>
    <path id="Path_4257" data-name="Path 4257" class="cls-1" d="M144.684,163.233h-8.168a1.017,1.017,0,1,1,0-2.033h8.168a.96.96,0,0,1,1.017,1.017A.948.948,0,0,1,144.684,163.233Z" transform="translate(-120.176 -142.803)"/>
    <path id="Path_4258" data-name="Path 4258" class="cls-1" d="M47.479,197.333H34.217a1.017,1.017,0,1,1,0-2.033H47.479a1.017,1.017,0,1,1,0,2.033Z" transform="translate(-30.11 -172.825)"/>
    <path id="Path_4259" data-name="Path 4259" class="cls-1" d="M182.278,197.333h-3.061a1.017,1.017,0,1,1,0-2.033h3.061a.96.96,0,0,1,1.017,1.017A.948.948,0,0,1,182.278,197.333Z" transform="translate(-157.77 -172.825)"/>
    <path id="Path_4260" data-name="Path 4260" class="cls-1" d="M74.575,114.014h-.407l-47.154-5.3a3.976,3.976,0,0,1-3.576-4.485l.108-.514a.914.914,0,0,1,.921-.921H71.514a2.052,2.052,0,0,0,2.045-2.045V73.808a.806.806,0,0,1,.311-.718.782.782,0,0,1,.813-.2l3.372.407a3.784,3.784,0,0,1,2.751,1.531,3.97,3.97,0,0,1,.921,2.954l-3.061,32.755A4.109,4.109,0,0,1,74.575,114.014ZM25.484,104.83a2.073,2.073,0,0,0,1.842,1.842l47.046,5.31a2.062,2.062,0,0,0,2.248-1.842l3.061-32.755a2.067,2.067,0,0,0-.407-1.531,1.736,1.736,0,0,0-1.327-.718h0l-2.344-.2v25.819a4.091,4.091,0,0,1-4.078,4.078Z" transform="translate(-21.485 -65.014)"/>
  </g>
</svg>
