<svg id="reportcardprops" xmlns="http://www.w3.org/2000/svg" xmlns:xlink="http://www.w3.org/1999/xlink" viewBox="0 0 62.287 50">
  <defs>
    <style>
      .cls-1 {
        fill: url(#linear-gradient);
      }
    </style>
    <linearGradient id="linear-gradient" x1="0.5" x2="0.5" y2="1" gradientUnits="objectBoundingBox">
      <stop offset="0" stop-color="#a389d4"/>
      <stop offset="1" stop-color="#899ed4"/>
    </linearGradient>
  </defs>
  <path id="Path_4261" data-name="Path 4261" class="cls-1" d="M171.622,0H134.286A4.59,4.59,0,0,0,129.7,4.586V15.024a.925.925,0,0,0,1.849,0V13.552h42.81V27.311a2.741,2.741,0,0,1-2.737,2.737h-8.479a.925.925,0,1,0,0,1.849h8.479a4.59,4.59,0,0,0,4.586-4.586V4.586A4.59,4.59,0,0,0,171.622,0ZM131.549,11.7v-4h5.377a.925.925,0,1,0,0-1.849h-5.377V4.586a2.741,2.741,0,0,1,2.737-2.737h37.336a2.741,2.741,0,0,1,2.737,2.737V5.852H139.4a.925.925,0,1,0,0,1.849h34.964v4Z" transform="translate(-113.921)"/>
  <path id="Path_4262" data-name="Path 4262" class="cls-1" d="M41.922,148.7H4.586A4.59,4.59,0,0,0,0,153.286v22.737a4.59,4.59,0,0,0,4.586,4.586H34.477a.925.925,0,0,0,0-1.849H4.586a2.741,2.741,0,0,1-2.737-2.737V153.286a2.741,2.741,0,0,1,2.737-2.737H41.922a2.741,2.741,0,0,1,2.737,2.737v22.737a2.741,2.741,0,0,1-2.737,2.737H37.555a.925.925,0,0,0,0,1.849h4.367a4.59,4.59,0,0,0,4.586-4.586V153.286A4.59,4.59,0,0,0,41.922,148.7Z" transform="translate(0 -130.61)"/>
  <path id="Path_4263" data-name="Path 4263" class="cls-1" d="M37.525,275.889a.924.924,0,0,0,.925-.925v-1.74a.925.925,0,0,0-1.849,0v1.74A.924.924,0,0,0,37.525,275.889Z" transform="translate(-32.147 -239.173)"/>
  <path id="Path_4264" data-name="Path 4264" class="cls-1" d="M86.049,274.964v-1.74a.925.925,0,0,0-1.849,0v1.74a.925.925,0,1,0,1.849,0Z" transform="translate(-73.957 -239.173)"/>
  <path id="Path_4265" data-name="Path 4265" class="cls-1" d="M62.249,274.964v-1.74a.925.925,0,0,0-1.849,0v1.74a.925.925,0,1,0,1.849,0Z" transform="translate(-53.052 -239.173)"/>
  <path id="Path_4266" data-name="Path 4266" class="cls-1" d="M108.825,272.2a.924.924,0,0,0-.925.925v1.74a.925.925,0,0,0,1.849,0v-1.74A.924.924,0,0,0,108.825,272.2Z" transform="translate(-94.773 -239.086)"/>
  <path id="Path_4267" data-name="Path 4267" class="cls-1" d="M259.1,273.223v1.74a.925.925,0,0,0,1.849,0v-1.74a.925.925,0,1,0-1.849,0Z" transform="translate(-227.579 -239.172)"/>
  <path id="Path_4268" data-name="Path 4268" class="cls-1" d="M306.7,273.223v1.74a.925.925,0,0,0,1.849,0v-1.74a.925.925,0,1,0-1.849,0Z" transform="translate(-269.389 -239.172)"/>
  <path id="Path_4269" data-name="Path 4269" class="cls-1" d="M283.825,272.2a.924.924,0,0,0-.925.925v1.74a.925.925,0,0,0,1.849,0v-1.74A.932.932,0,0,0,283.825,272.2Z" transform="translate(-248.484 -239.086)"/>
  <path id="Path_4270" data-name="Path 4270" class="cls-1" d="M331.425,272.2a.924.924,0,0,0-.925.925v1.74a.925.925,0,0,0,1.849,0v-1.74A.932.932,0,0,0,331.425,272.2Z" transform="translate(-290.293 -239.086)"/>
  <path id="Path_4271" data-name="Path 4271" class="cls-1" d="M149.749,274.964v-1.74a.925.925,0,0,0-1.849,0v1.74a.925.925,0,1,0,1.849,0Z" transform="translate(-129.907 -239.173)"/>
  <path id="Path_4272" data-name="Path 4272" class="cls-1" d="M195.4,273.225v1.74a.925.925,0,1,0,1.849,0v-1.74a.925.925,0,0,0-1.849,0Z" transform="translate(-171.629 -239.173)"/>
  <path id="Path_4273" data-name="Path 4273" class="cls-1" d="M173.549,274.964v-1.74a.925.925,0,0,0-1.849,0v1.74a.925.925,0,1,0,1.849,0Z" transform="translate(-150.812 -239.173)"/>
  <path id="Path_4274" data-name="Path 4274" class="cls-1" d="M220.125,272.2a.924.924,0,0,0-.925.925v1.74a.925.925,0,0,0,1.849,0v-1.74A.932.932,0,0,0,220.125,272.2Z" transform="translate(-192.533 -239.086)"/>
  <path id="Path_4275" data-name="Path 4275" class="cls-1" d="M47.05,196.082V193.26a2.362,2.362,0,0,0-2.36-2.36H38.96a2.362,2.362,0,0,0-2.36,2.36v2.822a2.362,2.362,0,0,0,2.36,2.36H44.7A2.352,2.352,0,0,0,47.05,196.082Zm-8.6,0V193.26a.514.514,0,0,1,.511-.511H44.7a.514.514,0,0,1,.511.511v2.822a.514.514,0,0,1-.511.511H38.96A.514.514,0,0,1,38.449,196.082Z" transform="translate(-32.147 -167.676)"/>
  <path id="Path_4276" data-name="Path 4276" class="cls-1" d="M37.525,346.049h5.024a.925.925,0,1,0,0-1.849H37.525a.925.925,0,0,0,0,1.849Z" transform="translate(-32.147 -302.327)"/>
  <path id="Path_4277" data-name="Path 4277" class="cls-1" d="M103.125,346.049h8.127a.925.925,0,1,0,0-1.849h-8.127a.925.925,0,1,0,0,1.849Z" transform="translate(-89.767 -302.327)"/>
  <path id="Path_4278" data-name="Path 4278" class="cls-1" d="M241.177,220.425a.924.924,0,0,0-.925-.925H227.625a.925.925,0,1,0,0,1.849h12.628A.924.924,0,0,0,241.177,220.425Z" transform="translate(-199.121 -192.797)"/>
  <path id="Path_4279" data-name="Path 4279" class="cls-1" d="M266.515,192.149a.925.925,0,1,0,0-1.849h-8.99a.925.925,0,0,0,0,1.849Z" transform="translate(-225.383 -167.149)"/>
</svg>
