<svg id="adobe" xmlns="http://www.w3.org/2000/svg" xmlns:xlink="http://www.w3.org/1999/xlink" viewBox="0 0 37.51 50">
  <defs>
    <style>
      .cls-1 {
        fill: url(#linear-gradient);
      }
    </style>
    <linearGradient id="linear-gradient" x1="0.5" x2="0.5" y2="1" gradientUnits="objectBoundingBox">
      <stop offset="0" stop-color="#a389d4"/>
      <stop offset="1" stop-color="#899ed4"/>
    </linearGradient>
  </defs>
  <path id="Path_4290" data-name="Path 4290" class="cls-1" d="M37.2,10.723,26.777.3a1.035,1.035,0,0,0-.732-.3H4.17A4.168,4.168,0,0,0,0,4.17V45.84A4.166,4.166,0,0,0,4.17,50H33.34a4.174,4.174,0,0,0,4.17-4.17V11.455A1.088,1.088,0,0,0,37.2,10.723ZM27.08,3.555l6.855,6.855H29.16a2.082,2.082,0,0,1-2.08-2.08V3.555ZM33.33,47.92H4.17a2.082,2.082,0,0,1-2.08-2.08V4.17A2.082,2.082,0,0,1,4.17,2.09H25V8.34a4.174,4.174,0,0,0,4.17,4.17h6.25V45.84A2.09,2.09,0,0,1,33.33,47.92Z"/>
  <path id="Path_4291" data-name="Path 4291" class="cls-1" d="M84.83,184.145a25.238,25.238,0,0,0-3.018.371,30.425,30.425,0,0,1-2.49-2.148c-.791-.791-1.5-1.562-2.119-2.295a23.373,23.373,0,0,0,1.377-5.3c0-3.457-1.25-4.17-3.125-4.17-1.426,0-3.125.742-3.125,4.268,0,1.553.85,3.438,2.539,5.635-.41,1.26-.9,2.715-1.445,4.355a23.277,23.277,0,0,1-.85,2.188c-.244.107-.479.215-.713.332-.83.41-1.611.791-2.344,1.133C66.2,190.092,64,191.127,64,193.188c0,1.494,1.621,2.422,3.125,2.422,1.934,0,4.863-2.588,7-6.943a41.4,41.4,0,0,1,7.148-1.934c1.748,1.338,3.672,2.627,4.6,2.627,2.578,0,3.125-1.494,3.125-2.744C89,184.145,86.188,184.145,84.83,184.145ZM67.125,193.52a1.712,1.712,0,0,1-1.045-.332c0-.742,2.207-1.777,4.336-2.793.137-.068.273-.127.41-.2C69.264,192.475,67.721,193.52,67.125,193.52Zm7.295-18.643c0-2.187.674-2.187,1.045-2.187.732,0,1.045,0,1.045,2.08a16.548,16.548,0,0,1-.83,3.252A6.261,6.261,0,0,1,74.42,174.877Zm.791,11.191c.068-.186.127-.361.186-.547.391-1.162.732-2.2,1.045-3.135.43.479.9.967,1.4,1.465.2.2.684.635,1.328,1.182C77.887,185.307,76.52,185.659,75.211,186.069Zm10.742,1.211a7.742,7.742,0,0,1-1.748-1c.293-.029.508-.049.635-.049,1.543,0,1.973.146,2.08.381C86.92,187.075,86.92,187.27,85.953,187.28Z" transform="translate(-57.75 -153.94)"/>
</svg>
