<svg xmlns="http://www.w3.org/2000/svg" viewBox="0 0 37.834 32.88">
  <defs>
    <style>
      .cls-1 {
        fill: #f5c22b;
      }
    </style>
  </defs>
  <path id="contactsicon" class="cls-1" d="M37.564,4.774a.889.889,0,0,0-.631-.27h-2.7V.9a.9.9,0,0,0-.9-.9H32.2c-6.756,0-10.72.991-13.287,3.333C16.35.991,12.386,0,5.63,0H4.5a.9.9,0,0,0-.9.9V4.5H.9a.889.889,0,0,0-.631.27A.889.889,0,0,0,0,5.4V28.6a.9.9,0,0,0,.9.9H2.027c12.116,0,14.728,2.748,14.954,3.063a.81.81,0,0,0,.676.315h2.432a.88.88,0,0,0,.676-.315c.27-.315,2.838-3.063,14.954-3.063h1.216a.9.9,0,0,0,.9-.9V5.4A.889.889,0,0,0,37.564,4.774ZM1.8,27.7V6.306H3.6V27.7H1.8Zm3.6.09V1.8H5.63c6.576,0,10.224.946,12.386,3.2V31.033C16.8,29.907,13.647,28.151,5.4,27.79Zm14.413,3.243V5C21.98,2.748,25.628,1.8,32.2,1.8h.225V27.79C24.187,28.151,21.034,29.907,19.818,31.033ZM36.033,27.7h-1.8V6.306h1.8Z"/>
</svg>
