<svg id="exceptionicon" xmlns="http://www.w3.org/2000/svg" xmlns:xlink="http://www.w3.org/1999/xlink" viewBox="0 0 35.911 32.88">
  <defs>
    <style>
      .cls-1 {
        fill: #f5c22b;
      }

      .cls-2 {
        clip-path: url(#clip-path);
      }
    </style>
    <clipPath id="clip-path">
      <rect id="Rectangle_1549" data-name="Rectangle 1549" class="cls-1" width="35.911" height="32.88"/>
    </clipPath>
  </defs>
  <g id="Group_2998" data-name="Group 2998">
    <g id="Group_2996" data-name="Group 2996" class="cls-2">
      <path id="Path_4368" data-name="Path 4368" class="cls-1" d="M176.443,250.2a1.843,1.843,0,1,0,0,3.685,1.843,1.843,0,0,0,0-3.685Zm0,0" transform="translate(-158.515 -227.15)"/>
    </g>
    <g id="Group_2997" data-name="Group 2997" class="cls-2">
      <path id="Path_4369" data-name="Path 4369" class="cls-1" d="M34.969,29.754a6.3,6.3,0,0,0,.018-6.366L23.444,3.406A6.357,6.357,0,0,0,12.407,3.4L.845,23.407a6.377,6.377,0,0,0,5.528,9.563h23.05a6.332,6.332,0,0,0,5.546-3.215Zm-2.506-1.437a3.486,3.486,0,0,1-3.04,1.76H6.364a3.439,3.439,0,0,1-3-1.723,3.486,3.486,0,0,1-.009-3.519l11.553-20a3.468,3.468,0,0,1,6.025,0l11.553,20a3.44,3.44,0,0,1-.018,3.482Zm0,0" transform="translate(0.012 -0.182)"/>
    </g>
  </g>
  <path id="Path_4370" data-name="Path 4370" class="cls-1" d="M175.619,109.266a2,2,0,0,0-1.419,2.008c.046.58.083,1.17.129,1.75.129,2.22.249,4.394.378,6.615a1.351,1.351,0,0,0,1.382,1.3,1.378,1.378,0,0,0,1.382-1.345,13.217,13.217,0,0,1,.046-1.345c.083-1.419.166-2.847.249-4.265.046-.921.129-1.843.166-2.764a2.371,2.371,0,0,0-.166-.921,1.87,1.87,0,0,0-2.147-1.032Zm0,0" transform="translate(-158.152 -99.151)"/>
</svg>
