<svg xmlns="http://www.w3.org/2000/svg" xmlns:xlink="http://www.w3.org/1999/xlink" viewBox="0 0 21.124 24.156">
  <defs>
    <style>
      .cls-1 {
        fill: url(#linear-gradient);
      }
    </style>
    <linearGradient id="linear-gradient" x1="0.5" x2="0.5" y2="1" gradientUnits="objectBoundingBox">
      <stop offset="0" stop-color="#1de9b6"/>
      <stop offset="1" stop-color="#1dc4e9"/>
    </linearGradient>
  </defs>
  <g id="ic_payments" transform="translate(-5.155 -2.205)">
    <g id="Group_3650" data-name="Group 3650" transform="translate(5.155 2.205)">
      <path id="Path_688" data-name="Path 688" class="cls-1" d="M16.4.162A.518.518,0,0,0,16.026,0h-9.2A2.121,2.121,0,0,0,4.706,2.1V3.66H2.118A2.131,2.131,0,0,0,0,5.772V22.059a2.121,2.121,0,0,0,2.118,2.1H14.3a2.121,2.121,0,0,0,2.118-2.1V20.5h2.588a2.131,2.131,0,0,0,2.118-2.112V5.218a.548.548,0,0,0-.162-.366Zm.12,1.657,2.818,2.886H16.878a.364.364,0,0,1-.356-.34Zm-1.15,20.24A1.076,1.076,0,0,1,14.3,23.11H2.118a1.076,1.076,0,0,1-1.072-1.051V5.772A1.09,1.09,0,0,1,2.118,4.706H4.706V18.384A2.131,2.131,0,0,0,6.823,20.5h8.549Zm3.634-2.609H6.823a1.09,1.09,0,0,1-1.072-1.067V2.1A1.076,1.076,0,0,1,6.823,1.046h8.653v3.32a1.408,1.408,0,0,0,1.4,1.386h3.2V18.384a1.09,1.09,0,0,1-1.072,1.067Zm0,0"/>
      <path id="Path_689" data-name="Path 689" class="cls-1" d="M151.032,311h-9.809a.523.523,0,1,0,0,1.046h9.809a.523.523,0,1,0,0-1.046Zm0,0" transform="translate(-133.343 -294.739)"/>
      <path id="Path_690" data-name="Path 690" class="cls-1" d="M141.223,268.046h5.872a.523.523,0,1,0,0-1.046h-5.872a.523.523,0,1,0,0,1.046Zm0,0" transform="translate(-133.343 -253.04)"/>
      <path id="Path_691" data-name="Path 691" class="cls-1" d="M211.432,91.708a.916.916,0,0,1-.915-.915.523.523,0,1,0-1.046,0,1.969,1.969,0,0,0,1.386,1.877v.439a.523.523,0,0,0,1.046,0V92.7a1.963,1.963,0,0,0-.471-3.869.915.915,0,1,1,.915-.915.523.523,0,0,0,1.046,0,1.963,1.963,0,0,0-1.49-1.9v-.491a.523.523,0,0,0-1.046,0v.512a1.962,1.962,0,0,0,.575,3.838.918.918,0,0,1,.016,1.835Zm0,0" transform="translate(-198.517 -80.556)"/>
    </g>
  </g>
</svg>
