<svg id="invoiceicon" xmlns="http://www.w3.org/2000/svg" viewBox="0 0 41.239 32.88">
  <defs>
    <style>
      .cls-1 {
        fill: #f5c22b;
      }
    </style>
  </defs>
  <path id="Path_4362" data-name="Path 4362" class="cls-1" d="M40.125,0H1.115A1.118,1.118,0,0,0,0,1.115V31.765A1.118,1.118,0,0,0,1.115,32.88h39.01a1.118,1.118,0,0,0,1.115-1.115V1.115A1.118,1.118,0,0,0,40.125,0ZM39.01,6.409H31.821V2.229H39.01Zm-16.106,0V2.229h6.687v4.18Zm-8.917,0V2.229h6.687v4.18ZM2.229,30.651V2.229h9.53V7.523a1.118,1.118,0,0,0,1.115,1.115H38.954V30.651Z"/>
  <path id="Path_4363" data-name="Path 4363" class="cls-1" d="M38.864,22.5H12.115a1.115,1.115,0,1,0,0,2.229h26.75a1.115,1.115,0,0,0,0-2.229Z" transform="translate(-4.87 -9.961)"/>
  <path id="Path_4364" data-name="Path 4364" class="cls-1" d="M38.864,32.5H12.115a1.115,1.115,0,1,0,0,2.229h26.75a1.115,1.115,0,1,0,0-2.229Z" transform="translate(-4.87 -14.388)"/>
  <path id="Path_4365" data-name="Path 4365" class="cls-1" d="M31.62,42.5H12.115a1.115,1.115,0,0,0,0,2.229H31.62a1.115,1.115,0,1,0,0-2.229Z" transform="translate(-4.87 -18.815)"/>
</svg>
