<svg id="limitextension" xmlns="http://www.w3.org/2000/svg" viewBox="0 0 25.67 24">
  <path id="Path_4394" data-name="Path 4394" d="M24.856,23.9H12.143a3.249,3.249,0,0,0-6.275,0H.815a.815.815,0,1,0,0,1.63H5.868a3.275,3.275,0,0,0,6.357,0H24.856a.815.815,0,0,0,0-1.63ZM9.005,26.39a1.63,1.63,0,1,1,1.63-1.63A1.635,1.635,0,0,1,9.005,26.39Z" transform="translate(0 -12.739)"/>
  <path id="Path_4395" data-name="Path 4395" d="M24.856,45.345H18.01A3.276,3.276,0,0,0,14.873,42.9a3.24,3.24,0,0,0-3.138,2.445H.815a.815.815,0,0,0,0,1.63H11.694a3.276,3.276,0,0,0,3.138,2.445,3.24,3.24,0,0,0,3.138-2.445h6.886a.815.815,0,0,0,0-1.63ZM14.832,47.79a1.63,1.63,0,1,1,1.63-1.63A1.635,1.635,0,0,1,14.832,47.79Z" transform="translate(0 -25.42)"/>
  <path id="Path_4396" data-name="Path 4396" d="M.815,4.034H14.3A3.278,3.278,0,0,0,17.48,6.52a3.314,3.314,0,0,0,3.178-2.486h4.2a.815.815,0,0,0,0-1.63H20.577a3.249,3.249,0,0,0-6.275,0H.815a.815.815,0,1,0,0,1.63ZM17.44,1.63a1.63,1.63,0,1,1-1.63,1.63A1.635,1.635,0,0,1,17.44,1.63Z"/>
</svg>
