<svg id="reportfuelicon" xmlns="http://www.w3.org/2000/svg" xmlns:xlink="http://www.w3.org/1999/xlink" viewBox="0 0 60.914 50">
  <defs>
    <style>
      .cls-1 {
        fill: url(#linear-gradient);
      }
    </style>
    <linearGradient id="linear-gradient" x1="0.5" x2="0.5" y2="1" gradientUnits="objectBoundingBox">
      <stop offset="0" stop-color="#1de9b6"/>
      <stop offset="1" stop-color="#1dc4e9"/>
    </linearGradient>
  </defs>
  <path id="Path_4216" data-name="Path 4216" class="cls-1" d="M23.6,27.919a2.184,2.184,0,0,1-2.03-2.03c0-1.015,2.03-4.569,2.03-4.569s2.03,3.553,2.03,4.569a2.184,2.184,0,0,1-2.03,2.03ZM22.081,19.8H19.8V31.98H15.736v1.777H18.02v1.777H0V33.756H2.284V14.467H15.736V30.2H18.02V18.02h4.822L24.112,19.8l-1.269,1.015ZM12.69,17.513H5.33V23.1h7.36ZM37.563,21.32a1.924,1.924,0,0,1,.508,1.015c.254.254.254.761.508,1.015l12.437-7.36Zm-5.838,0a3.973,3.973,0,1,0,3.553,7.107,4.167,4.167,0,0,0,1.777-5.584,4.01,4.01,0,0,0-5.33-1.523ZM35.787,0H32.741V8.376h3.046Zm-3.3,50h3.046V41.624H32.487ZM52.538,23.35V26.4h8.376V23.35ZM44.67,10.66l1.015,1.269,5.838-5.838L50.508,5.076Zm0,28.68,5.838,5.838,1.015-1.015-5.838-5.838ZM25.127,46.447h4.061V44.924H25.127V43.147h4.315V41.624H23.35V50H29.7V48.477H25.127Zm.254-38.071V4.822h3.553V3.3H25.381V1.523h4.061V0H23.6V8.376Zm0,0"/>
</svg>
