<svg xmlns="http://www.w3.org/2000/svg" viewBox="0 0 24.725 32.88">
  <defs>
    <style>
      .cls-1 {
        fill: #f5c22b;
      }
    </style>
  </defs>
  <g id="requesticon" transform="translate(0 -0.2)">
    <path id="Path_4349" data-name="Path 4349" class="cls-1" d="M30.387,7.01h0V6.88h0a.159.159,0,0,0-.043-.13h0a.151.151,0,0,0-.043-.087h0a.151.151,0,0,0-.043-.087h0L30.17,6.49h0L24.1.417h0L24.011.33h0c-.043-.043-.043-.043-.087-.043h0a.151.151,0,0,1-.087-.043h0c-.043,0-.087-.043-.13-.043H10.868A.87.87,0,0,0,10,1.068V27.961a.87.87,0,0,0,.868.868H29.52a.87.87,0,0,0,.868-.868V7.01ZM24.315,3.063l3.123,3.123H24.315ZM11.735,27.007V1.848H22.579V7.054a.87.87,0,0,0,.868.868h5.205V27.007Z" transform="translate(-5.662)"/>
    <path id="Path_4350" data-name="Path 4350" class="cls-1" d="M30.579,24H18.868a.868.868,0,0,0,0,1.735H30.579a.868.868,0,1,0,0-1.735Z" transform="translate(-10.192 -13.476)"/>
    <path id="Path_4351" data-name="Path 4351" class="cls-1" d="M30.579,32H18.868a.868.868,0,1,0,0,1.735H30.579a.868.868,0,1,0,0-1.735Z" transform="translate(-10.192 -18.006)"/>
    <path id="Path_4352" data-name="Path 4352" class="cls-1" d="M30.579,40H18.868a.868.868,0,1,0,0,1.735H30.579a.868.868,0,1,0,0-1.735Z" transform="translate(-10.192 -22.536)"/>
    <path id="Path_4353" data-name="Path 4353" class="cls-1" d="M24.2,48H18.868a.868.868,0,1,0,0,1.735H24.2A.868.868,0,0,0,24.2,48Z" transform="translate(-10.192 -27.066)"/>
    <path id="Path_4354" data-name="Path 4354" class="cls-1" d="M20.387,35.761H1.735V8.868A.868.868,0,0,0,0,8.868V36.629a.87.87,0,0,0,.868.868h19.52a.868.868,0,1,0,0-1.735Z" transform="translate(0 -4.417)"/>
  </g>
</svg>
