<svg id="transactionicon" xmlns="http://www.w3.org/2000/svg" viewBox="0 0 32.88 32.88">
  <defs>
    <style>
      .cls-1 {
        fill: #f5c22b;
      }
    </style>
  </defs>
  <path id="Path_4358" data-name="Path 4358" class="cls-1" d="M12.832,15.87H28.981v1.873a.832.832,0,0,0,1.665,0V15.87h3.413a.832.832,0,1,0,0-1.665H30.646V12.332a.832.832,0,0,0-1.665,0v1.873H12.832a.832.832,0,0,0,0,1.665Z" transform="translate(-7.006 -6.714)"/>
  <path id="Path_4359" data-name="Path 4359" class="cls-1" d="M12.832,35.37H18.7v1.873a.832.832,0,1,0,1.665,0V35.37H34.059a.832.832,0,1,0,0-1.665H20.366V31.832a.832.832,0,0,0-1.665,0v1.873H12.832a.832.832,0,1,0,0,1.665Z" transform="translate(-7.006 -18.098)"/>
  <path id="Path_4360" data-name="Path 4360" class="cls-1" d="M12.832,54.87H26.359v1.873a.832.832,0,0,0,1.665,0V54.87h6.035a.832.832,0,1,0,0-1.665H28.024V51.332a.832.832,0,0,0-1.665,0v1.873H12.832a.832.832,0,1,0,0,1.665Z" transform="translate(-7.006 -29.482)"/>
  <path id="Path_4361" data-name="Path 4361" class="cls-1" d="M32.048,0H.832A.835.835,0,0,0,0,.832V32.048a.835.835,0,0,0,.832.832H32.048a.835.835,0,0,0,.832-.832V.832A.835.835,0,0,0,32.048,0Zm-.832,31.215H1.665V1.665h29.55Z"/>
</svg>
