<svg xmlns="http://www.w3.org/2000/svg" viewBox="0 0 27.185 24">
  <g id="viewcards" transform="translate(0 0.016)">
    <path id="Path_4177" data-name="Path 4177" d="M90.614,76.652a.607.607,0,0,0,.162-.016l8.091-2.007a.642.642,0,1,0-.307-1.246l-8.107,1.99a.636.636,0,0,0-.469.777A.652.652,0,0,0,90.614,76.652Z" transform="translate(-75.403 -61.503)"/>
    <path id="Path_4178" data-name="Path 4178" d="M90.614,56.652a.607.607,0,0,0,.162-.016l8.091-2.007a.642.642,0,1,0-.307-1.246l-8.107,1.99a.636.636,0,0,0-.469.777A.652.652,0,0,0,90.614,56.652Z" transform="translate(-75.403 -44.739)"/>
    <path id="Path_4179" data-name="Path 4179" d="M90.614,36.652a.607.607,0,0,0,.162-.016l8.091-2.007a.642.642,0,1,0-.307-1.246l-8.107,1.99a.636.636,0,0,0-.469.777A.652.652,0,0,0,90.614,36.652Z" transform="translate(-75.403 -27.975)"/>
    <path id="Path_4180" data-name="Path 4180" d="M26.943.132a.615.615,0,0,0-.55-.113l-12.8,3.155L.809,0a.656.656,0,0,0-.55.113A.676.676,0,0,0,0,.634v19.5a.675.675,0,0,0,.485.631l12.945,3.2a.5.5,0,0,0,.162.016.607.607,0,0,0,.162-.016l12.945-3.2a.629.629,0,0,0,.485-.631V.634A.653.653,0,0,0,26.943.132ZM25.891,19.615l-12.3,3.042-12.3-3.042V1.459l12.136,3.01a.5.5,0,0,0,.307,0l12.136-3.01V19.615Z"/>
    <path id="Path_4181" data-name="Path 4181" d="M90.7,101.342a.607.607,0,0,0,.162-.016l4.855-1.2a.642.642,0,1,0-.307-1.246l-4.854,1.2a.636.636,0,0,0-.469.777A.624.624,0,0,0,90.7,101.342Z" transform="translate(-75.487 -82.876)"/>
  </g>
</svg>
