<svg id="executeserviceicon" xmlns="http://www.w3.org/2000/svg" viewBox="0 0 42 24">
  <path id="Path_4309" data-name="Path 4309" d="M41.05,34H19.8a1,1,0,1,0,0,2H41.05a1,1,0,1,0,0-2Z" transform="translate(-9.4 -17)"/>
  <path id="Path_4310" data-name="Path 4310" d="M68,26H67a1,1,0,0,0,0,2h1a1,1,0,0,0,0-2Z" transform="translate(-33 -13)"/>
  <path id="Path_4311" data-name="Path 4311" d="M68,18H67a1,1,0,0,0,0,2h1a1,1,0,0,0,0-2Z" transform="translate(-33 -9)"/>
  <path id="Path_4312" data-name="Path 4312" d="M68,10H67a1,1,0,0,0,0,2h1a1,1,0,0,0,0-2Z" transform="translate(-33 -5)"/>
  <path id="Path_4313" data-name="Path 4313" d="M58,28h1a1,1,0,0,0,0-2H58a1,1,0,0,0,0,2Z" transform="translate(-28.5 -13)"/>
  <path id="Path_4314" data-name="Path 4314" d="M58,20h1a1,1,0,0,0,0-2H58a1,1,0,0,0,0,2Z" transform="translate(-28.5 -9)"/>
  <path id="Path_4315" data-name="Path 4315" d="M58,12h1a1,1,0,0,0,0-2H58a1,1,0,0,0,0,2Z" transform="translate(-28.5 -5)"/>
  <path id="Path_4316" data-name="Path 4316" d="M49,28h1a1,1,0,0,0,0-2H49a1,1,0,0,0,0,2Z" transform="translate(-24 -13)"/>
  <path id="Path_4317" data-name="Path 4317" d="M49,20h1a1,1,0,0,0,0-2H49a1,1,0,0,0,0,2Z" transform="translate(-24 -9)"/>
  <path id="Path_4318" data-name="Path 4318" d="M49,12h1a1,1,0,0,0,0-2H49a1,1,0,0,0,0,2Z" transform="translate(-24 -5)"/>
  <path id="Path_4319" data-name="Path 4319" d="M40,28h1a1,1,0,0,0,0-2H40a1,1,0,0,0,0,2Z" transform="translate(-19.5 -13)"/>
  <path id="Path_4320" data-name="Path 4320" d="M40,20h1a1,1,0,0,0,0-2H40a1,1,0,0,0,0,2Z" transform="translate(-19.5 -9)"/>
  <path id="Path_4321" data-name="Path 4321" d="M40,12h1a1,1,0,0,0,0-2H40a1,1,0,0,0,0,2Z" transform="translate(-19.5 -5)"/>
  <path id="Path_4322" data-name="Path 4322" d="M31,28h1a1,1,0,0,0,0-2H31a1,1,0,0,0,0,2Z" transform="translate(-15 -13)"/>
  <path id="Path_4323" data-name="Path 4323" d="M31,20h1a1,1,0,0,0,0-2H31a1,1,0,0,0,0,2Z" transform="translate(-15 -9)"/>
  <path id="Path_4324" data-name="Path 4324" d="M31,12h1a1,1,0,0,0,0-2H31a1,1,0,0,0,0,2Z" transform="translate(-15 -5)"/>
  <path id="Path_4325" data-name="Path 4325" d="M22,28h1a1,1,0,0,0,0-2H22a1,1,0,0,0,0,2Z" transform="translate(-10.5 -13)"/>
  <path id="Path_4326" data-name="Path 4326" d="M22,20h1a1,1,0,0,0,0-2H22a1,1,0,0,0,0,2Z" transform="translate(-10.5 -9)"/>
  <path id="Path_4327" data-name="Path 4327" d="M22,12h1a1,1,0,0,0,0-2H22a1,1,0,0,0,0,2Z" transform="translate(-10.5 -5)"/>
  <path id="Path_4328" data-name="Path 4328" d="M14,26H13a1,1,0,0,0,0,2h1a1,1,0,0,0,0-2Z" transform="translate(-6 -13)"/>
  <path id="Path_4329" data-name="Path 4329" d="M14,18H13a1,1,0,0,0,0,2h1a1,1,0,0,0,0-2Z" transform="translate(-6 -9)"/>
  <path id="Path_4330" data-name="Path 4330" d="M14,10H13a1,1,0,0,0,0,2h1a1,1,0,0,0,0-2Z" transform="translate(-6 -5)"/>
  <path id="Path_4331" data-name="Path 4331" d="M38.35,0H3.65A3.67,3.67,0,0,0,0,3.65v16.7A3.67,3.67,0,0,0,3.65,24h34.7A3.67,3.67,0,0,0,42,20.35V3.65A3.67,3.67,0,0,0,38.35,0ZM40,20.35A1.665,1.665,0,0,1,38.35,22H3.65A1.665,1.665,0,0,1,2,20.35V3.65A1.665,1.665,0,0,1,3.65,2h34.7A1.665,1.665,0,0,1,40,3.65Z"/>
</svg>
