<svg id="mycard" xmlns="http://www.w3.org/2000/svg" viewBox="0 0 46.812 32.88">
  <defs>
    <style>
      .cls-1 {
        fill: #f5c22b;
      }
    </style>
  </defs>
  <path id="Path_4343" data-name="Path 4343" class="cls-1" d="M16.13,41H11.115a1.115,1.115,0,1,0,0,2.229H16.13a1.115,1.115,0,1,0,0-2.229Z" transform="translate(-4.427 -18.151)"/>
  <path id="Path_4344" data-name="Path 4344" class="cls-1" d="M33.13,41H28.115a1.115,1.115,0,0,0,0,2.229H33.13a1.115,1.115,0,1,0,0-2.229Z" transform="translate(-11.953 -18.151)"/>
  <path id="Path_4345" data-name="Path 4345" class="cls-1" d="M50.13,41H45.115a1.115,1.115,0,1,0,0,2.229H50.13a1.115,1.115,0,0,0,0-2.229Z" transform="translate(-19.479 -18.151)"/>
  <path id="Path_4346" data-name="Path 4346" class="cls-1" d="M67.13,41H62.115a1.115,1.115,0,1,0,0,2.229H67.13a1.115,1.115,0,0,0,0-2.229Z" transform="translate(-27.005 -18.151)"/>
  <path id="Path_4347" data-name="Path 4347" class="cls-1" d="M46.812,5.461A5.47,5.47,0,0,0,41.351,0H5.461A5.47,5.47,0,0,0,0,5.461V27.419A5.47,5.47,0,0,0,5.461,32.88H41.351a5.47,5.47,0,0,0,5.461-5.461V5.461ZM44.583,27.419a3.235,3.235,0,0,1-3.232,3.232H5.461a3.235,3.235,0,0,1-3.232-3.232V5.461A3.235,3.235,0,0,1,5.461,2.229H41.351a3.235,3.235,0,0,1,3.232,3.232Z"/>
  <path id="Path_4348" data-name="Path 4348" class="cls-1" d="M37.985,10a5.814,5.814,0,0,0-3.455,1.115A5.939,5.939,0,0,0,31.074,10a6.019,6.019,0,1,0-.056,12.037,5.814,5.814,0,0,0,3.455-1.115,5.939,5.939,0,0,0,3.455,1.115A6.019,6.019,0,0,0,37.985,10Zm0,9.753a3.753,3.753,0,0,1-2.675-1.115,1.1,1.1,0,0,0-.78-.334h0a1.012,1.012,0,0,0-.78.334,3.753,3.753,0,0,1-2.675,1.115,3.79,3.79,0,0,1,0-7.579,3.753,3.753,0,0,1,2.675,1.115,1.1,1.1,0,0,0,.78.334,1.012,1.012,0,0,0,.78-.334,3.753,3.753,0,0,1,2.675-1.115,3.79,3.79,0,0,1,0,7.579Z" transform="translate(-11.068 -4.427)"/>
</svg>
