<svg id="reportcardrest" xmlns="http://www.w3.org/2000/svg" xmlns:xlink="http://www.w3.org/1999/xlink" viewBox="0 0 44.167 50">
  <defs>
    <style>
      .cls-1 {
        fill: url(#linear-gradient);
      }
    </style>
    <linearGradient id="linear-gradient" x1="0.5" x2="0.5" y2="1" gradientUnits="objectBoundingBox">
      <stop offset="0" stop-color="#a389d4"/>
      <stop offset="1" stop-color="#899ed4"/>
    </linearGradient>
  </defs>
  <path id="Path_4280" data-name="Path 4280" class="cls-1" d="M162.5,37a2.5,2.5,0,1,0-2.5-2.5A2.494,2.494,0,0,0,162.5,37Zm0-3.333a.833.833,0,1,1-.833.833A.836.836,0,0,1,162.5,33.667Z" transform="translate(-143.333 -28.667)"/>
  <path id="Path_4281" data-name="Path 4281" class="cls-1" d="M48.833,148H75.5a.836.836,0,0,0,.833-.833V128.833A.836.836,0,0,0,75.5,128H48.833a.836.836,0,0,0-.833.833v18.333A.836.836,0,0,0,48.833,148Zm13.333-10a2.5,2.5,0,1,1,2.5-2.5A2.494,2.494,0,0,1,62.167,138Zm-1.75,1.667h3.5a2.418,2.418,0,0,1,2.417,2.417v4.25H58v-4.25A2.418,2.418,0,0,1,60.417,139.667Zm-10.75-10h25v16.667H68v-4.25a4.075,4.075,0,0,0-2.729-3.833,4.168,4.168,0,1,0-6.219,0,4.089,4.089,0,0,0-2.729,3.833v4.25H49.667Z" transform="translate(-43 -114.667)"/>
  <rect id="Rectangle_1536" data-name="Rectangle 1536" class="cls-1" width="12.5" height="1.667" transform="translate(5 35)"/>
  <rect id="Rectangle_1537" data-name="Rectangle 1537" class="cls-1" width="5" height="1.667" transform="translate(19.167 35)"/>
  <rect id="Rectangle_1538" data-name="Rectangle 1538" class="cls-1" width="20" height="1.667" transform="translate(5 40)"/>
  <rect id="Rectangle_1539" data-name="Rectangle 1539" class="cls-1" width="3.333" height="1.667" transform="translate(25.833 35)"/>
  <path id="Path_4282" data-name="Path 4282" class="cls-1" d="M37.5,5H25.094L25.812.979A.836.836,0,0,0,25.135.01.55.55,0,0,0,25,0H13.333A.836.836,0,0,0,12.5.833a.688.688,0,0,0,.01.146L13.229,5H.833A.836.836,0,0,0,0,5.833V49.167A.836.836,0,0,0,.833,50H37.5a.836.836,0,0,0,.833-.833V42.2l5.635-6.656a.833.833,0,0,0-.042-1.125l-2.5-2.5a.836.836,0,0,0-1.177,0,.453.453,0,0,0-.062.073l-1.854,2.3V5.833A.836.836,0,0,0,37.5,5ZM24,1.667,22.5,10H15.813l-1.5-8.333ZM36.667,48.333h-35V6.667H13.531l.771,4.313a.838.838,0,0,0,.823.687H23.2a.838.838,0,0,0,.823-.687l.771-4.313H36.667V36.375l-2.573,3.208L32.25,37.74a.836.836,0,0,0-1.177,0h0l-2.5,2.5a.836.836,0,0,0,0,1.177h0l5,5a.826.826,0,0,0,.594.24H34.2a.859.859,0,0,0,.6-.292l1.865-2.2Zm4.24-14.583,1.3,1.3L34.125,44.6l-3.781-3.771,1.323-1.323,1.906,1.906a.839.839,0,0,0,.635.24.807.807,0,0,0,.6-.312Z"/>
  <rect id="Rectangle_1540" data-name="Rectangle 1540" class="cls-1" width="7.5" height="1.667" transform="translate(5 45)"/>
  <rect id="Rectangle_1541" data-name="Rectangle 1541" class="cls-1" width="13.333" height="1.667" transform="translate(14.167 45)"/>
</svg>
