<svg id="trxbalreporticon" xmlns="http://www.w3.org/2000/svg" xmlns:xlink="http://www.w3.org/1999/xlink" viewBox="0 0 65.88 50">
  <defs>
    <style>
      .cls-1 {
        fill: url(#linear-gradient);
      }

      .cls-2 {
        fill: url(#linear-gradient-2);
      }

      .cls-3 {
        fill: url(#linear-gradient-3);
      }

      .cls-4 {
        fill: url(#linear-gradient-4);
      }

      .cls-5 {
        fill: url(#linear-gradient-5);
      }

      .cls-6 {
        fill: url(#linear-gradient-6);
      }

      .cls-7 {
        fill: url(#linear-gradient-7);
      }

      .cls-8 {
        fill: url(#linear-gradient-8);
      }

      .cls-9 {
        fill: url(#linear-gradient-9);
      }

      .cls-10 {
        fill: url(#linear-gradient-10);
      }

      .cls-11 {
        fill: url(#linear-gradient-11);
      }

      .cls-12 {
        fill: url(#linear-gradient-12);
      }

      .cls-13 {
        fill: url(#linear-gradient-13);
      }
    </style>
    <linearGradient id="linear-gradient" x1="1.018" y1="-0.042" x2="-0.011" y2="0.967" gradientUnits="objectBoundingBox">
      <stop offset="0" stop-color="#a389d4"/>
      <stop offset="1" stop-color="#899ed4"/>
    </linearGradient>
    <linearGradient id="linear-gradient-2" x1="1.429" y1="-0.477" x2="-0.136" y2="1.169" xlink:href="#linear-gradient"/>
    <linearGradient id="linear-gradient-3" x1="1.103" y1="-0.678" x2="-0.13" y2="1.729" xlink:href="#linear-gradient"/>
    <linearGradient id="linear-gradient-4" x1="5.571" y1="-3.611" x2="-22.374" y2="19.039" xlink:href="#linear-gradient"/>
    <linearGradient id="linear-gradient-5" x1="22.765" y1="-17.548" x2="-5.178" y2="5.1" xlink:href="#linear-gradient"/>
    <linearGradient id="linear-gradient-6" x1="18.646" y1="-14.211" x2="-9.298" y2="8.439" xlink:href="#linear-gradient"/>
    <linearGradient id="linear-gradient-7" x1="7.18" y1="-14.043" x2="-3.222" y2="8.606" xlink:href="#linear-gradient"/>
    <linearGradient id="linear-gradient-8" x1="7.768" y1="-12.79" x2="-4.625" y2="9.859" xlink:href="#linear-gradient"/>
    <linearGradient id="linear-gradient-9" x1="8.592" y1="-14.291" x2="-3.8" y2="8.359" xlink:href="#linear-gradient"/>
    <linearGradient id="linear-gradient-10" x1="3.996" y1="-7.106" x2="-6.406" y2="15.543" xlink:href="#linear-gradient"/>
    <linearGradient id="linear-gradient-11" x1="4.531" y1="-6.869" x2="-7.862" y2="15.781" xlink:href="#linear-gradient"/>
    <linearGradient id="linear-gradient-12" x1="5.355" y1="-8.369" x2="-7.037" y2="14.28" xlink:href="#linear-gradient"/>
    <linearGradient id="linear-gradient-13" x1="4.268" y1="-1.096" x2="-3.435" y2="2.168" xlink:href="#linear-gradient"/>
  </defs>
  <path id="Path_4203" data-name="Path 4203" class="cls-1" d="M84.608,33.814a3.7,3.7,0,0,0,.655-2.075c0-1.7-1.223-3.233-3.451-4.3a9.605,9.605,0,0,0-1.092-.459V1.114A1.119,1.119,0,0,0,79.606,0H25.914a1.114,1.114,0,0,0,0,2.228H78.492V26.343a19.262,19.262,0,0,0-3.954-.393c-4.325,0-8.038,1.267-9.742,3.3-2.512.175-5.679,1.879-8.344,4.565a17.141,17.141,0,0,0-4.107,6.2c-.808,2.337-.59,4.281.612,5.483a3.991,3.991,0,0,0,2.905,1.092c2.534,0,5.789-1.682,8.585-4.391a3.638,3.638,0,0,0-.633,2.01c0,1.7,1.223,3.233,3.451,4.3a18.553,18.553,0,0,0,14.548,0c2.228-1.07,3.451-2.6,3.451-4.3a3.7,3.7,0,0,0-.655-2.075,3.613,3.613,0,0,0,0-4.15,3.7,3.7,0,0,0,.655-2.075A3.889,3.889,0,0,0,84.608,33.814Zm-1.573,6.225a1.781,1.781,0,0,1-.612,1.223l-.066.066-.022.022c-1.289,1.2-4.194,2.228-7.776,2.228s-6.509-1.027-7.776-2.228l-.022-.022-.066-.066a2.44,2.44,0,0,1-.568-.9,5.593,5.593,0,0,0,.437-.568,16.228,16.228,0,0,0,8.017,1.879,16.937,16.937,0,0,0,7.274-1.485,8.8,8.8,0,0,0,1.114-.633A3.189,3.189,0,0,1,83.035,40.039Zm-.109-4.631a1.245,1.245,0,0,1,.087.481,1.855,1.855,0,0,1-.633,1.267l-.044.044v.022c-1.267,1.223-4.194,2.25-7.8,2.25a14.278,14.278,0,0,1-6.793-1.507,13.9,13.9,0,0,0,.7-1.4,18.38,18.38,0,0,0,6.094.983,16.937,16.937,0,0,0,7.274-1.485A12.554,12.554,0,0,0,82.926,35.408Zm.109-3.67a1.781,1.781,0,0,1-.612,1.223l-.066.066-.022.022c-1.289,1.2-4.194,2.228-7.776,2.228a15.429,15.429,0,0,1-5.439-.9,4.428,4.428,0,0,0-.983-4.085,3.3,3.3,0,0,0-.612-.481,13.713,13.713,0,0,1,7.012-1.66C79.409,28.178,83.035,30.057,83.035,31.739Zm-27.173,12.6a1.844,1.844,0,0,1-1.332-.437c-1.18-1.18.066-5.09,3.495-8.519,2.381-2.381,5.2-3.932,7.187-3.932a1.844,1.844,0,0,1,1.332.437c1.18,1.18-.066,5.09-3.495,8.519C60.667,42.792,57.849,44.343,55.862,44.343Zm18.676,3.386c-4.849,0-8.5-1.879-8.5-3.561a1.245,1.245,0,0,1,.087-.481,8.8,8.8,0,0,0,1.114.633,18.553,18.553,0,0,0,14.548,0,8.8,8.8,0,0,0,1.114-.633,1.245,1.245,0,0,1,.087.481C83.035,45.85,79.409,47.728,74.538,47.728Z" transform="translate(-19.383)"/>
  <path id="Path_4204" data-name="Path 4204" class="cls-2" d="M39.8,29.533a1.119,1.119,0,0,0-1.114-1.114H2.228V1.114A1.114,1.114,0,0,0,0,1.114V29.533a1.119,1.119,0,0,0,1.114,1.114H38.685A1.119,1.119,0,0,0,39.8,29.533Z"/>
  <path id="Path_4205" data-name="Path 4205" class="cls-3" d="M25.914,37.4a4.657,4.657,0,0,1,4.653,4.653,1.119,1.119,0,0,0,1.114,1.114H68.4a1.119,1.119,0,0,0,1.114-1.114A4.657,4.657,0,0,1,74.167,37.4a1.119,1.119,0,0,0,1.114-1.114V29.081a1.119,1.119,0,0,0-1.114-1.114,4.657,4.657,0,0,1-4.653-4.653A1.119,1.119,0,0,0,68.4,22.2H31.681a1.119,1.119,0,0,0-1.114,1.114,4.657,4.657,0,0,1-4.653,4.653A1.119,1.119,0,0,0,24.8,29.081v7.208A1.119,1.119,0,0,0,25.914,37.4Zm15.858-4.74a8.257,8.257,0,1,1,8.257,8.257A8.264,8.264,0,0,1,41.772,32.663ZM67.4,24.406a6.889,6.889,0,0,0,5.679,5.679v5.177A6.889,6.889,0,0,0,67.4,40.942H56.517a10.456,10.456,0,0,0,0-16.514H67.4ZM27.028,30.086a6.889,6.889,0,0,0,5.679-5.679H43.585a10.456,10.456,0,0,0,0,16.514H32.707a6.889,6.889,0,0,0-5.679-5.679Z" transform="translate(-19.383 -17.351)"/>
  <path id="Path_4206" data-name="Path 4206" class="cls-4" d="M247.7,24a1.109,1.109,0,0,0,.328-.786,1.112,1.112,0,0,0-1.9-.786,1.165,1.165,0,0,0-.328.786,1.072,1.072,0,0,0,.328.786,1.209,1.209,0,0,0,.786.328A1.124,1.124,0,0,0,247.7,24Z" transform="translate(-192.108 -17.273)"/>
  <path id="Path_4207" data-name="Path 4207" class="cls-5" d="M25.914,110.228a1.072,1.072,0,0,0,.786-.328,1.109,1.109,0,0,0,.328-.786,1.072,1.072,0,0,0-.328-.786,1.109,1.109,0,0,0-.786-.328,1.072,1.072,0,0,0-.786.328,1.165,1.165,0,0,0-.328.786,1.072,1.072,0,0,0,.328.786A1.038,1.038,0,0,0,25.914,110.228Z" transform="translate(-19.383 -84.409)"/>
  <path id="Path_4208" data-name="Path 4208" class="cls-6" d="M26.7,24a1.209,1.209,0,0,0,.328-.786,1.072,1.072,0,0,0-.328-.786,1.109,1.109,0,0,0-.786-.328,1.112,1.112,0,0,0-.786,1.9A1.107,1.107,0,0,0,26.7,24Z" transform="translate(-19.383 -17.273)"/>
  <path id="Path_4209" data-name="Path 4209" class="cls-7" d="M55.514,67.228h3.757a1.114,1.114,0,0,0,0-2.228H55.514A1.119,1.119,0,0,0,54.4,66.114,1.1,1.1,0,0,0,55.514,67.228Z" transform="translate(-42.517 -50.802)"/>
  <path id="Path_4210" data-name="Path 4210" class="cls-8" d="M68.314,47.928h2.8a1.114,1.114,0,0,0,0-2.228h-2.8A1.119,1.119,0,0,0,67.2,46.814,1.1,1.1,0,0,0,68.314,47.928Z" transform="translate(-52.521 -35.717)"/>
  <path id="Path_4211" data-name="Path 4211" class="cls-9" d="M71.11,84.4h-2.8a1.114,1.114,0,0,0,0,2.228h2.8a1.114,1.114,0,0,0,0-2.228Z" transform="translate(-52.521 -65.964)"/>
  <path id="Path_4212" data-name="Path 4212" class="cls-10" d="M199,66.114a1.119,1.119,0,0,0,1.114,1.114h3.757a1.114,1.114,0,1,0,0-2.228h-3.757A1.119,1.119,0,0,0,199,66.114Z" transform="translate(-155.531 -50.802)"/>
  <path id="Path_4213" data-name="Path 4213" class="cls-11" d="M191.714,47.928h2.8a1.114,1.114,0,0,0,0-2.228h-2.8a1.114,1.114,0,0,0,0,2.228Z" transform="translate(-148.966 -35.717)"/>
  <path id="Path_4214" data-name="Path 4214" class="cls-12" d="M191.714,86.628h2.8a1.114,1.114,0,0,0,0-2.228h-2.8a1.114,1.114,0,0,0,0,2.228Z" transform="translate(-148.966 -65.964)"/>
  <path id="Path_4215" data-name="Path 4215" class="cls-13" d="M125.941,37.693a1.809,1.809,0,0,1,1.813,1.813,1.114,1.114,0,0,0,2.228,0,4.036,4.036,0,0,0-2.949-3.888,1.109,1.109,0,0,0-2.184,0,4.04,4.04,0,0,0,1.092,7.929,1.813,1.813,0,1,1-1.813,1.813,1.114,1.114,0,1,0-2.228,0,4.036,4.036,0,0,0,2.949,3.888,1.109,1.109,0,0,0,2.184,0,4.04,4.04,0,0,0-1.092-7.929,1.813,1.813,0,0,1,0-3.626Z" transform="translate(-95.273 -27.12)"/>
</svg>
