<svg xmlns="http://www.w3.org/2000/svg" viewBox="0 0 21.516 24">
  <path id="copyrolesicon" d="M21.516,12.641V5.711a.608.608,0,0,0-.142-.4L17.292.237A.665.665,0,0,0,16.8,0H4.73a.593.593,0,0,0-.49.237L.142,5.316a.608.608,0,0,0-.142.4v6.929a.635.635,0,0,0,.633.633h1.74L.142,16.042a.608.608,0,0,0-.142.4v6.929A.635.635,0,0,0,.633,24h20.25a.635.635,0,0,0,.633-.633V16.438a.608.608,0,0,0-.142-.4l-2.262-2.769h1.772A.625.625,0,0,0,21.516,12.641ZM5.031,1.266H16.485L19.57,5.078H14.761a.66.66,0,0,0-.57.348L13.036,7.752H8.48L7.325,5.442a.63.63,0,0,0-.57-.348H1.962ZM20.25,17.055v5.68H1.266v-5.68a.593.593,0,0,0,.174.016H6.376l1.155,2.31a.63.63,0,0,0,.57.348h5.332A.66.66,0,0,0,14,19.38l1.155-2.31h4.936A.488.488,0,0,0,20.25,17.055Zm-.7-1.25H14.761a.66.66,0,0,0-.57.348l-1.155,2.31H8.48l-1.155-2.31a.63.63,0,0,0-.57-.348H1.962L4,13.274H17.5Zm.7-3.8H1.266V6.328a.593.593,0,0,0,.174.016H6.376l1.155,2.31A.63.63,0,0,0,8.1,9h5.332A.66.66,0,0,0,14,8.654l1.155-2.31h4.936a.649.649,0,0,0,.174-.016v5.68Z"/>
</svg>
