<svg xmlns="http://www.w3.org/2000/svg" xmlns:xlink="http://www.w3.org/1999/xlink" viewBox="0 0 42.765 41.437">
  <defs>
    <style>
      .cls-1 {
        fill: url(#linear-gradient);
      }

      .cls-2 {
        clip-path: url(#clip-path);
      }
    </style>
    <linearGradient id="linear-gradient" x1="0.5" x2="0.5" y2="1" gradientUnits="objectBoundingBox">
      <stop offset="0" stop-color="#04a9f5"/>
      <stop offset="1" stop-color="#049df5"/>
    </linearGradient>
    <clipPath id="clip-path">
      <path id="Path_4389" data-name="Path 4389" class="cls-1" d="M0-32.981H41.437V9.784H0Z" transform="translate(0 32.981)"/>
    </clipPath>
  </defs>
  <g id="dropdownlink" transform="translate(32.981 41.437) rotate(-90)">
    <g id="Group_3025" data-name="Group 3025" class="cls-2" transform="translate(0 -32.981)">
      <g id="Group_3023" data-name="Group 3023" transform="translate(0 0)">
        <path id="Path_4387" data-name="Path 4387" class="cls-1" d="M8.842,3.84l-31.064-16.2a5.175,5.175,0,0,0-2.4-.587,5.189,5.189,0,0,0-2.689.752,5.185,5.185,0,0,0-2.5,4.435V24.634a5.191,5.191,0,0,0,2.5,4.436,5.2,5.2,0,0,0,2.689.751,5.175,5.175,0,0,0,2.4-.587l31.064-16.2a5.188,5.188,0,0,0,0-9.2" transform="translate(29.807 12.944)"/>
      </g>
      <g id="Group_3024" data-name="Group 3024" transform="translate(5.187 5.187)">
        <path id="Path_4388" data-name="Path 4388" class="cls-1" d="M0,7.41V-24.981l31.064,16.2Z" transform="translate(0 24.981)"/>
      </g>
    </g>
  </g>
</svg>
