<svg id="unblockicon" xmlns="http://www.w3.org/2000/svg" viewBox="0 0 17.393 24">
  <path id="Path_4172" data-name="Path 4172" d="M16.767,10.646H15.3V6.607a6.607,6.607,0,1,0-13.213,0,.626.626,0,1,0,1.252,0,5.362,5.362,0,0,1,10.724,0v4.039H.626A.628.628,0,0,0,0,11.272v12.1A.628.628,0,0,0,.626,24H16.767a.628.628,0,0,0,.626-.626v-12.1A.628.628,0,0,0,16.767,10.646Zm-.626,12.117H1.252V11.9H16.141Z"/>
  <path id="Path_4173" data-name="Path 4173" d="M48.226,92.233v3.945a.626.626,0,0,0,1.252,0V92.233a1.252,1.252,0,1,0-1.252,0Z" transform="translate(-40.148 -75.826)"/>
</svg>
