<svg xmlns="http://www.w3.org/2000/svg" xmlns:xlink="http://www.w3.org/1999/xlink" viewBox="0 0 26.147 29.901"><defs><style>.a{fill:url(#a);}</style><linearGradient id="a" x1="0.5" x2="0.5" y2="1" gradientUnits="objectBoundingBox"><stop offset="0" stop-color="#1de9b6"/><stop offset="1" stop-color="#1dc4e9"/></linearGradient></defs><g transform="translate(0 0)"><path class="a" d="M20.3.2a.642.642,0,0,0-.466-.2H8.446A2.626,2.626,0,0,0,5.825,2.6V4.531h-3.2A2.638,2.638,0,0,0,0,7.145V27.306a2.626,2.626,0,0,0,2.621,2.6H17.7a2.626,2.626,0,0,0,2.621-2.6V25.371h3.2a2.638,2.638,0,0,0,2.621-2.615V6.459a.679.679,0,0,0-.2-.453Zm.149,2.052,3.488,3.573H20.892a.45.45,0,0,1-.44-.421ZM19.028,27.306a1.332,1.332,0,0,1-1.327,1.3H2.621a1.332,1.332,0,0,1-1.327-1.3V7.145a1.349,1.349,0,0,1,1.327-1.32h3.2V22.756a2.638,2.638,0,0,0,2.621,2.615H19.028Zm4.5-3.23H8.446a1.349,1.349,0,0,1-1.327-1.32V2.6a1.332,1.332,0,0,1,1.327-1.3H19.158V5.4a1.743,1.743,0,0,0,1.735,1.715h3.961V22.756a1.349,1.349,0,0,1-1.327,1.32Zm0,0"/><path class="a" d="M153.489,311H141.347a.647.647,0,1,0,0,1.294h12.142a.647.647,0,1,0,0-1.294Zm0,0" transform="translate(-131.594 -290.872)"/><path class="a" d="M141.347,268.294h7.268a.647.647,0,1,0,0-1.294h-7.268a.647.647,0,1,0,0,1.294Zm0,0" transform="translate(-131.594 -249.719)"/><path class="a" d="M211.9,93.3a1.134,1.134,0,0,1-1.133-1.133.647.647,0,1,0-1.294,0,2.437,2.437,0,0,0,1.715,2.324v.544a.647.647,0,0,0,1.294,0v-.5a2.43,2.43,0,0,0-.582-4.789,1.133,1.133,0,1,1,1.133-1.133.647.647,0,0,0,1.294,0,2.43,2.43,0,0,0-1.845-2.356v-.608a.647.647,0,0,0-1.294,0v.634a2.429,2.429,0,0,0,.712,4.751,1.136,1.136,0,0,1,.019,2.272Zm0,0" transform="translate(-195.912 -79.499)"/></g></svg>