<svg xmlns="http://www.w3.org/2000/svg" viewBox="0 0 42.619 32.88">
  <defs>
    <style>
      .cls-1 {
        fill: #f5c22b;
      }
    </style>
  </defs>
  <path id="cardapplicationicon" class="cls-1" d="M40.621,0H9.656a2.158,2.158,0,0,0-2,2.281V9.406H2a2.158,2.158,0,0,0-2,2.281v18.9A2.161,2.161,0,0,0,2,32.88H32.963a2.158,2.158,0,0,0,2-2.281V23.474h5.66a2.158,2.158,0,0,0,2-2.281V2.281A2.158,2.158,0,0,0,40.621,0ZM9.656,1.665H40.621c.117,0,.333.233.333.616V5.56H9.323V2.281C9.323,1.9,9.539,1.665,9.656,1.665ZM2,11.071H32.963c.117,0,.333.233.333.616v3.28H1.665v-3.28C1.665,11.3,1.881,11.071,2,11.071ZM33.3,30.6c0,.383-.216.616-.333.616H2c-.117,0-.333-.233-.333-.616V16.64H33.3Zm7.325-8.79h-5.66V11.7a2.158,2.158,0,0,0-2-2.281H9.323V7.234H37.841v3.28a.832.832,0,1,0,1.665,0V7.234h1.448V21.193C40.954,21.576,40.738,21.809,40.621,21.809Z"/>
</svg>
