<svg id="reportdeclineicon" xmlns="http://www.w3.org/2000/svg" xmlns:xlink="http://www.w3.org/1999/xlink" viewBox="0 0 50 50">
  <defs>
    <style>
      .cls-1 {
        fill: url(#linear-gradient);
      }

      .cls-2 {
        fill: url(#linear-gradient-2);
      }

      .cls-3 {
        fill: url(#linear-gradient-3);
      }

      .cls-4 {
        fill: url(#linear-gradient-4);
      }

      .cls-5 {
        fill: url(#linear-gradient-5);
      }

      .cls-6 {
        fill: url(#linear-gradient-6);
      }

      .cls-7 {
        fill: url(#linear-gradient-7);
      }

      .cls-8 {
        fill: url(#linear-gradient-8);
      }
    </style>
    <linearGradient id="linear-gradient" x1="3.469" y1="-0.952" x2="-2.519" y2="1.975" gradientUnits="objectBoundingBox">
      <stop offset="0" stop-color="#a389d4"/>
      <stop offset="1" stop-color="#899ed4"/>
    </linearGradient>
    <linearGradient id="linear-gradient-2" x1="9.234" y1="-3.575" x2="-17.564" y2="8.919" xlink:href="#linear-gradient"/>
    <linearGradient id="linear-gradient-3" x1="1.215" y1="-0.193" x2="-0.196" y2="1.205" xlink:href="#linear-gradient"/>
    <linearGradient id="linear-gradient-4" x1="0.959" y1="0.031" x2="0.034" y2="0.977" xlink:href="#linear-gradient"/>
    <linearGradient id="linear-gradient-5" x1="8.155" y1="-7.397" x2="-15.768" y2="17.252" xlink:href="#linear-gradient"/>
    <linearGradient id="linear-gradient-6" x1="1.648" y1="-3.37" x2="-1.215" y2="6.337" xlink:href="#linear-gradient"/>
    <linearGradient id="linear-gradient-7" x1="16.567" y1="-16.104" x2="-7.354" y2="8.628" xlink:href="#linear-gradient"/>
    <linearGradient id="linear-gradient-8" x1="2.192" y1="-5.247" x2="-0.674" y2="4.446" xlink:href="#linear-gradient"/>
  </defs>
  <path id="Path_4228" data-name="Path 4228" class="cls-1" d="M131.363,105.085a2.179,2.179,0,0,1,2.172,2.172.845.845,0,0,0,1.691,0,3.858,3.858,0,0,0-3.017-3.763v-.448a.845.845,0,1,0-1.691,0v.448a3.86,3.86,0,0,0,.845,7.626,2.172,2.172,0,1,1-2.172,2.172.845.845,0,0,0-1.691,0,3.858,3.858,0,0,0,3.017,3.763v.448a.845.845,0,1,0,1.691,0v-.448a3.86,3.86,0,0,0-.845-7.626,2.172,2.172,0,0,1,0-4.343Z" transform="translate(-106.363 -85.257)"/>
  <path id="Path_4229" data-name="Path 4229" class="cls-2" d="M243.085,139.289a.862.862,0,0,0-.8.9c.017.332.033.68.033,1.011,0,.315-.017.647-.033.978a.85.85,0,0,0,.8.9h.05a.851.851,0,0,0,.845-.8c.017-.348.033-.713.033-1.078s-.017-.746-.033-1.111A.85.85,0,0,0,243.085,139.289Z" transform="translate(-202.12 -116.196)"/>
  <path id="Path_4230" data-name="Path 4230" class="cls-3" d="M81.112,70.684a.846.846,0,0,0-1.094.5,15.211,15.211,0,1,1,0-10.759.85.85,0,1,0,1.592-.6,16.845,16.845,0,1,0,.017,11.969A.9.9,0,0,0,81.112,70.684Z" transform="translate(-40.793 -40.793)"/>
  <path id="Path_4231" data-name="Path 4231" class="cls-4" d="M50,21.668a.874.874,0,0,0-.464-.763l-3.2-1.625,1.956-3.017a.839.839,0,0,0,.017-.879L44.993,9.615a.811.811,0,0,0-.779-.414l-3.6.182L40.8,5.8a.874.874,0,0,0-.414-.779L34.615,1.691a.838.838,0,0,0-.879.017L30.719,3.664,29.095.464A.855.855,0,0,0,28.332,0H21.668a.874.874,0,0,0-.763.464l-1.625,3.2-3-1.956a.839.839,0,0,0-.879-.017L9.615,5.023A.841.841,0,0,0,9.2,5.8l.182,3.581L5.8,9.184a.874.874,0,0,0-.779.414L1.674,15.385a.838.838,0,0,0,.017.879l1.956,3.017-3.2,1.625A.892.892,0,0,0,0,21.668v6.664a.874.874,0,0,0,.464.763l3.2,1.625L1.708,33.737a.839.839,0,0,0-.017.879l3.332,5.769A.841.841,0,0,0,5.8,40.8l3.581-.182L9.2,44.2a.874.874,0,0,0,.414.779l5.769,3.332a.838.838,0,0,0,.879-.017l3.017-1.956,1.625,3.2a.855.855,0,0,0,.763.464h6.664a.874.874,0,0,0,.763-.464l1.625-3.2,3.017,1.956a.839.839,0,0,0,.879.017l5.769-3.332A.841.841,0,0,0,40.8,44.2l-.182-3.581L44.2,40.8a.874.874,0,0,0,.779-.414l3.332-5.769a.838.838,0,0,0-.017-.879l-1.956-3.017,3.2-1.625A.855.855,0,0,0,50,28.332Zm-5.272,7.974a.86.86,0,0,0-.431.531.824.824,0,0,0,.116.68L46.6,34.218l-2.818,4.874-4.012-.216a.861.861,0,0,0-.647.249.837.837,0,0,0-.249.647l.216,4.012L34.218,46.6l-3.365-2.188a.89.89,0,0,0-.68-.116.818.818,0,0,0-.531.431l-1.824,3.581H22.182l-1.824-3.581a.86.86,0,0,0-.531-.431.824.824,0,0,0-.68.116L15.782,46.6l-4.874-2.818.216-4.012a.861.861,0,0,0-.249-.647.837.837,0,0,0-.647-.249l-4.012.216L3.4,34.218l2.188-3.365a.852.852,0,0,0-.332-1.21L1.674,27.818V22.182l3.581-1.824a.86.86,0,0,0,.431-.531.884.884,0,0,0-.1-.68L3.415,15.782l2.818-4.874,4.012.216a.861.861,0,0,0,.647-.249.837.837,0,0,0,.249-.647l-.216-4.012L15.8,3.4l3.365,2.188a.89.89,0,0,0,.68.116.818.818,0,0,0,.531-.431L22.2,1.691h5.637l1.824,3.581a.86.86,0,0,0,.531.431.824.824,0,0,0,.68-.116L34.234,3.4l4.874,2.818-.216,4.012a.861.861,0,0,0,.249.647.837.837,0,0,0,.647.249l4.012-.216,2.818,4.874L44.43,19.148a.89.89,0,0,0-.116.68.818.818,0,0,0,.431.531l3.581,1.824v5.637Z"/>
  <path id="Path_4232" data-name="Path 4232" class="cls-5" d="M194.924,96.753a.845.845,0,0,0,.6-1.442c-.083-.083-.166-.166-.265-.249a.844.844,0,0,0-1.16,1.227c.083.066.149.149.232.216A.814.814,0,0,0,194.924,96.753Z" transform="translate(-161.701 -79.113)"/>
  <path id="Path_4233" data-name="Path 4233" class="cls-6" d="M99.906,79.577a.86.86,0,0,0-.862-.829h-.149a10.8,10.8,0,0,1,10.975.149.844.844,0,0,0,.879-1.442,12.518,12.518,0,0,0-12.881-.066l.116-.249a.845.845,0,0,0-1.525-.729L95.082,79.3a.867.867,0,0,0,.05.829.826.826,0,0,0,.713.381h.017l3.2-.066A.842.842,0,0,0,99.906,79.577Z" transform="translate(-79.25 -63.098)"/>
  <path id="Path_4234" data-name="Path 4234" class="cls-7" d="M96.349,195.511a.841.841,0,0,0,0,1.194c.083.083.166.166.265.249a.859.859,0,0,0,.58.232.8.8,0,0,0,.613-.265.856.856,0,0,0-.033-1.194c-.083-.066-.149-.149-.232-.216A.872.872,0,0,0,96.349,195.511Z" transform="translate(-80.168 -162.902)"/>
  <path id="Path_4235" data-name="Path 4235" class="cls-8" d="M122.794,201.086a.97.97,0,0,0,.365.083.859.859,0,0,0,.763-.481L125.3,197.8a.867.867,0,0,0-.05-.829.817.817,0,0,0-.729-.381l-3.2.066a.846.846,0,0,0,.017,1.691h.166a10.8,10.8,0,0,1-10.975-.149.844.844,0,1,0-.879,1.442,12.451,12.451,0,0,0,12.865.066l-.116.249A.822.822,0,0,0,122.794,201.086Z" transform="translate(-91.13 -164.001)"/>
</svg>
