<svg xmlns="http://www.w3.org/2000/svg" viewBox="0 0 37.432 32.88">
  <defs>
    <style>
      .cls-1 {
        fill: #f5c22b;
      }
    </style>
  </defs>
  <path id="rolesicon" class="cls-1" d="M31.262,15.462c-.451-.113-.941-.263-1.091-.3-.188-.075-.3-.564-.3-1.091A6.369,6.369,0,0,0,31,11.437a2.327,2.327,0,0,0,.6-.715,3.4,3.4,0,0,0,.414-2.408,1.987,1.987,0,0,0-.64-.941V6.17c-.113-3.16-2.633-4.251-4.778-4.251H26.56c-2.144,0-4.7,1.129-4.778,4.251v1.2a2.063,2.063,0,0,0-.64.941,3.364,3.364,0,0,0,.414,2.408,2.88,2.88,0,0,0,.6.715,6.369,6.369,0,0,0,1.129,2.633c0,.564-.113,1.016-.3,1.091-.226.113-1.542.489-2.408.752-.339.113-1.016.3-1.5.451-.226-.075-.451-.113-.677-.188-.564-.15-1.129-.3-1.354-.376-.339-.15-.451-.828-.451-1.5a7.516,7.516,0,0,0,1.354-3.16,2.644,2.644,0,0,0,.715-.828,4.008,4.008,0,0,0,.489-2.784A2.246,2.246,0,0,0,18.4,6.433V4.966A4.569,4.569,0,0,0,15.876.715,6.78,6.78,0,0,0,12.866,0h-.038a7.052,7.052,0,0,0-3.01.677A4.569,4.569,0,0,0,7.3,4.928V6.4a2.526,2.526,0,0,0-.752,1.091,4.008,4.008,0,0,0,.489,2.784,2.644,2.644,0,0,0,.715.828A7.783,7.783,0,0,0,9.1,14.258c0,.677-.113,1.354-.451,1.5-.188.075-.752.226-1.354.376C4.552,16.891,0,18.058,0,21.1v1.618a.752.752,0,0,0,1.5,0V21.1c0-1.881,4.176-2.972,6.17-3.461a11.784,11.784,0,0,0,1.58-.489c1.354-.6,1.392-2.483,1.317-3.235a.536.536,0,0,0-.226-.451A6.138,6.138,0,0,1,9.1,10.458a.8.8,0,0,0-.527-.564,2.47,2.47,0,0,1-.6-1.919.586.586,0,0,1,.376-.414A.705.705,0,0,0,8.8,6.847V5c.075-3.16,2.822-3.5,4.025-3.5h.038c1.2,0,3.95.339,4.025,3.461.038.752,0,1.843,0,1.843a.771.771,0,0,0,.489.715.642.642,0,0,1,.339.414,2.678,2.678,0,0,1-.6,1.919.732.732,0,0,0-.527.564,6.517,6.517,0,0,1-1.241,3.01,1.025,1.025,0,0,0-.226.451c-.075.752-.038,2.633,1.317,3.235.339.15.865.263,1.58.489,1.994.527,6.17,1.618,6.17,3.461v11.06a.752.752,0,1,0,1.5,0V21.1c0-1.956-1.919-3.16-4.025-3.95,1.053-.3,1.693-.489,1.956-.6,1.2-.564,1.241-2.182,1.166-2.822a.536.536,0,0,0-.226-.451A5.56,5.56,0,0,1,23.55,10.8a.8.8,0,0,0-.527-.564,1.969,1.969,0,0,1-.451-1.467.733.733,0,0,1,.226-.3.705.705,0,0,0,.451-.715V6.207c.075-2.521,2.295-2.784,3.273-2.784h0c.978,0,3.2.263,3.273,2.784V7.75a.771.771,0,0,0,.489.715.526.526,0,0,1,.226.263,2.074,2.074,0,0,1-.451,1.467.8.8,0,0,0-.527.564,4.836,4.836,0,0,1-.978,2.483,1.025,1.025,0,0,0-.226.451c-.038.677-.038,2.295,1.166,2.822.263.113.715.226,1.354.414,1.655.414,5.079,1.317,5.079,2.784v2.144a.752.752,0,0,0,1.5,0V19.713C37.47,17.08,33.595,16.064,31.262,15.462Z"/>
</svg>
